<svg id="Layer_1" data-name="Layer 1" xmlns="http://www.w3.org/2000/svg" viewBox="0 0 5310.85 769.23"><defs><style>.cls-1,.cls-14{fill:#8fcb18;}.cls-2{fill:#2d0e02;}.cls-3{fill:#fafd85;}.cls-4{fill:#be0149;}.cls-5{opacity:0.2;}.cls-6{fill:#fff;}.cls-7{fill:#ab4c06;}.cls-8{fill:#7c1803;}.cls-9{fill:#749b15;}.cls-10,.cls-20{fill:#f6a135;}.cls-11,.cls-19{fill:#fec546;}.cls-12,.cls-15{fill:#fa1500;}.cls-12,.cls-13,.cls-14,.cls-17,.cls-19,.cls-20{fill-rule:evenodd;}.cls-13{fill:#ff0;}.cls-16{opacity:0.1;}.cls-17{fill:#f2faaa;}.cls-18{fill:#78b41c;}.cls-21{fill:#fafd96;}</style></defs><path class="cls-1" d="M1222.17,250.09h-82.23q-42.14,0-62.52-16.85T1057,181.34V76.53q0-35,20.39-52.06t62.52-17h82.23q6.39,0,9.26,2.86t2.87,9.27V60.36q0,6.4-2.87,9.27t-9.26,2.86h-67.74q-10.46,0-15.5,4.21t-5.06,12.64v80.21q0,8.43,5.06,12.3t15.5,3.87h67.74q6.39,0,9.26,2.87t2.87,9.27V238q0,6.4-2.87,9.27T1222.17,250.09Z"/><path class="cls-2" d="M1222.17,256.59h-82.23c-29.51,0-51.94-6.17-66.66-18.34-15.09-12.47-22.75-31.61-22.75-56.91V76.53c0-25.27,7.65-44.47,22.73-57C1088,7.18,1110.43,1,1139.94,1h82.23c6,0,10.68,1.6,13.85,4.76s4.78,7.84,4.78,13.87V60.36c0,6-1.61,10.7-4.77,13.86S1228.2,79,1222.17,79h-67.74c-5.29,0-9.22.94-11.34,2.71-.67.56-2.72,2.26-2.72,7.64v80.21c0,5.22,1.89,6.66,2.51,7.14,1.51,1.16,4.74,2.53,11.55,2.53h67.74c6,0,10.68,1.61,13.85,4.77s4.78,7.84,4.78,13.87V238c0,6-1.61,10.7-4.77,13.86S1228.2,256.59,1222.17,256.59ZM1139.94,14c-26.39,0-46,5.22-58.35,15.51-12.15,10.14-18.06,25.54-18.06,47.07V181.34c0,21.53,5.9,36.87,18,46.89,12.33,10.19,32,15.36,58.38,15.36h82.23c3.6,0,4.57-.86,4.67-1s1-1.06,1-4.67v-40.1c0-3.61-.87-4.58-1-4.68s-1.06-1-4.66-1h-67.74c-8.52,0-14.88-1.7-19.46-5.21-3.46-2.66-7.6-7.84-7.6-17.46V89.34c0-7.6,2.49-13.54,7.39-17.63,4.63-3.85,11.06-5.72,19.67-5.72h67.74c3.6,0,4.57-.86,4.67-1s1-1.06,1-4.67V19.58c0-3.6-.87-4.58-1-4.68s-1.06-1-4.66-1Z"/><path class="cls-1" d="M1336.41,250.09h-51.9q-6.4,0-9.27-2.86t-2.86-9.27V19.58q0-6.39,2.86-9.27t9.27-2.86h112.22q37.74,0,52.07,15.67t14.32,40.61v15.5q0,14.16-4.21,24.1a26.24,26.24,0,0,1-14.66,14.32q18.2,2,29.49,14.83t11.29,34V238q0,6.4-2.87,9.27t-9.27,2.86h-52.23q-6.4,0-9.27-2.86t-2.86-9.27V186.4c0-4.94-1-8.6-2.87-11s-5.22-3.54-9.94-3.54h-47.18V238q0,6.4-2.87,9.27T1336.41,250.09Zm12.13-182v43.14h25.27q8.76,0,11.8-4.55a20,20,0,0,0,3-11.29V84a19.93,19.93,0,0,0-3-11.29q-3-4.55-11.8-4.55Z"/><path class="cls-2" d="M1472.89,256.59h-52.23c-6,0-10.71-1.6-13.87-4.77S1402,244,1402,238V186.4c0-4.61-1-6.34-1.42-6.87s-2-1.12-4.89-1.12H1355V238c0,6-1.6,10.7-4.77,13.86s-7.83,4.77-13.86,4.77h-51.9c-6,0-10.71-1.6-13.87-4.77s-4.76-7.82-4.76-13.86V19.58c0-6,1.6-10.7,4.76-13.86S1278.47,1,1284.51,1h112.22c27.32,0,45.92,5.82,56.87,17.78,10.63,11.64,16,26.78,16,45v15.5c0,10.27-1.59,19.23-4.73,26.63a32.7,32.7,0,0,1-5.46,8.82,49.39,49.39,0,0,1,19.18,13.5c8.57,9.73,12.92,22.62,12.92,38.34V238c0,6-1.61,10.7-4.77,13.86S1478.93,256.59,1472.89,256.59ZM1342,165.41h53.68c6.75,0,11.79,2,15,5.94,2.91,3.6,4.32,8.52,4.32,15.05V238c0,3.61.85,4.57,1,4.66s1.07,1,4.68,1h52.23c3.61,0,4.58-.86,4.68-1s1-1.06,1-4.67V166.52c0-12.63-3.17-22.36-9.67-29.75s-14.77-11.49-25.33-12.66l-24.91-2.77,23.12-9.69a19.78,19.78,0,0,0,11.18-10.86c2.46-5.79,3.7-13,3.7-21.56V63.73c0-15.08-4.13-26.93-12.62-36.23-8.22-9-24.13-13.55-47.27-13.55H1284.51c-3.61,0-4.57.86-4.67,1s-1,1.07-1,4.67V238c0,3.61.85,4.57.95,4.66s1.07,1,4.68,1h51.9c3.6,0,4.57-.86,4.67-1s1-1.06,1-4.67Zm31.77-47.66H1342V61.61h31.77c8.13,0,13.91,2.5,17.21,7.44a26.35,26.35,0,0,1,4.12,14.9V95.41A26.29,26.29,0,0,1,1391,110.3C1387.72,115.24,1381.94,117.75,1373.81,117.75Zm-18.77-13h18.77c3.31,0,5.7-.62,6.39-1.66a13.47,13.47,0,0,0,1.94-7.68V84a13.66,13.66,0,0,0-1.94-7.68c-.69-1-3.08-1.66-6.39-1.66H1355Z"/><path class="cls-1" d="M1591.52,238q0,6.4-2.87,9.27t-9.26,2.86h-49.54c-4.27,0-7.37-1-9.27-2.86s-2.87-5-2.87-9.27V149a99.41,99.41,0,0,1,3.21-23.25,254.39,254.39,0,0,1,9.94-30.67l29.32-76.5a15.75,15.75,0,0,1,6.23-8.42q4.21-2.7,10.95-2.7H1668a19.32,19.32,0,0,1,10.61,2.7,15.81,15.81,0,0,1,6.24,8.42l29.32,76.5a258,258,0,0,1,9.94,30.67,99.88,99.88,0,0,1,3.2,23.25v89q0,6.4-2.86,9.27t-9.27,2.86h-50.89q-6.75,0-9.94-2.86t-3.2-9.27V190.78h-59.65Zm19.21-159.74-15.84,51.22h52.91L1632,78.22a12.88,12.88,0,0,0-2.87-4.38,5.15,5.15,0,0,0-3.54-1.35h-8.42a5.15,5.15,0,0,0-3.54,1.35A12.73,12.73,0,0,0,1610.73,78.22Z"/><path class="cls-2" d="M1715.2,256.59h-50.89c-6.12,0-10.93-1.52-14.28-4.52-3.55-3.17-5.36-7.92-5.36-14.11V197.28H1598V238c0,6-1.61,10.7-4.77,13.86s-7.83,4.77-13.86,4.77h-49.54c-6,0-10.72-1.6-13.87-4.77s-4.77-7.82-4.77-13.86V149a106.23,106.23,0,0,1,3.39-24.79,262.81,262.81,0,0,1,10.19-31.46l29.29-76.42a22.14,22.14,0,0,1,8.82-11.65c3.87-2.47,8.73-3.72,14.46-3.72H1668a25.76,25.76,0,0,1,14.11,3.72A22.21,22.21,0,0,1,1691,16.32l29.29,76.42a263.81,263.81,0,0,1,10.18,31.46,106.57,106.57,0,0,1,3.39,24.79v89c0,6-1.6,10.7-4.77,13.86S1721.23,256.59,1715.2,256.59ZM1585,184.28h72.65V238c0,2.58.53,4,1,4.42.33.29,1.67,1.21,5.62,1.21h50.89c3.6,0,4.57-.86,4.67-1s1-1.06,1-4.67V149a94.1,94.1,0,0,0-3-21.72,252.74,252.74,0,0,0-9.69-29.87l-29.38-76.67a9.44,9.44,0,0,0-3.62-5.11A13.11,13.11,0,0,0,1668,14h-90.66c-3.21,0-5.71.56-7.45,1.67a9.52,9.52,0,0,0-3.6,5.11l-.06.17-29.32,76.5a249.33,249.33,0,0,0-9.7,29.87,93.82,93.82,0,0,0-3,21.72v89c0,3.61.86,4.57,1,4.66s1.07,1,4.68,1h49.54c3.6,0,4.57-.86,4.67-1s1-1.06,1-4.67Zm71.59-48.34h-70.54l18.71-60.35a18.91,18.91,0,0,1,4.49-6.61,11.68,11.68,0,0,1,7.86-3h8.42a11.66,11.66,0,0,1,7.85,3,18.86,18.86,0,0,1,4.49,6.6l.28.73Zm-52.91-13H1639l-13.11-42.4A10.48,10.48,0,0,0,1625,79h-7.33a9.37,9.37,0,0,0-.86,1.54Z"/><path class="cls-1" d="M1833.15,250.09h-52.24q-6.4,0-9.27-2.86t-2.86-9.27V19.58q0-6.39,2.86-9.27t9.27-2.86h150.3q6.4,0,9.27,2.86t2.87,9.27V59.69q0,6.41-2.87,9.26t-9.27,2.87h-85.93v35.05h58.64q6.39,0,9.27,2.86t2.86,9.27v40.44q0,6.41-2.86,9.27t-9.27,2.86h-58.64V238q0,6.4-2.87,9.27T1833.15,250.09Z"/><path class="cls-2" d="M1833.15,256.59h-52.24c-6,0-10.71-1.6-13.87-4.77s-4.76-7.82-4.76-13.86V19.58c0-6,1.6-10.7,4.77-13.86S1774.88,1,1780.91,1h150.31c6,0,10.68,1.6,13.85,4.76s4.78,7.84,4.78,13.87V59.69c0,6-1.61,10.7-4.77,13.86s-7.83,4.77-13.86,4.77h-79.44v22.05h52.14c6,0,10.69,1.6,13.85,4.76s4.78,7.84,4.78,13.87v40.44c0,6-1.6,10.7-4.77,13.86s-7.83,4.77-13.86,4.77h-52.14V238c0,6-1.61,10.7-4.77,13.86S1839.18,256.59,1833.15,256.59ZM1780.91,14c-3.6,0-4.57.86-4.67,1s-1,1.07-1,4.67V238c0,3.61.86,4.57,1,4.66s1.07,1,4.68,1h52.24c3.6,0,4.57-.86,4.67-1s1-1.06,1-4.67V165.07h65.14c3.6,0,4.57-.86,4.67-1s1-1.07,1-4.67V119c0-3.61-.87-4.58-1-4.68s-1.06-.95-4.66-.95h-65.14V65.32h92.44c3.6,0,4.57-.87,4.67-1s1-1.07,1-4.67V19.58c0-3.6-.87-4.58-1-4.67s-1.06-1-4.66-1Z"/><path class="cls-1" d="M2091.63,250.09H2037q-6.4,0-9.27-2.86T2024.9,238V72.49h-49.54q-6.4,0-9.27-2.86t-2.86-9.27V19.58q0-6.39,2.86-9.27t9.27-2.86H2153.3q6.39,0,9.27,2.86t2.86,9.27V60.36q0,6.4-2.86,9.27t-9.27,2.86h-49.54V238q0,6.4-2.87,9.27T2091.63,250.09Z"/><path class="cls-2" d="M2091.63,256.59H2037c-6,0-10.71-1.6-13.87-4.77S2018.4,244,2018.4,238V79h-43c-6,0-10.71-1.61-13.87-4.77s-4.76-7.82-4.76-13.86V19.58c0-6,1.6-10.7,4.77-13.86S1969.32,1,1975.36,1H2153.3c6,0,10.69,1.6,13.86,4.76s4.77,7.84,4.77,13.87V60.36c0,6-1.6,10.7-4.77,13.86S2159.33,79,2153.3,79h-43V238c0,6-1.61,10.7-4.77,13.86S2097.66,256.59,2091.63,256.59ZM1975.36,14c-3.61,0-4.57.86-4.67,1s-1,1.07-1,4.67V60.36c0,3.61.86,4.57,1,4.66s1.07,1,4.68,1h56V238c0,3.61.86,4.57.95,4.66s1.07,1,4.68,1h54.6c3.6,0,4.57-.86,4.67-1s1-1.06,1-4.67V66h56c3.6,0,4.57-.86,4.67-1s1-1.06,1-4.67V19.58c0-3.6-.87-4.58-1-4.68s-1.06-1-4.66-1Z"/><path class="cls-1" d="M2253.39,238q0,6.4-2.87,9.27t-9.26,2.86h-49.54c-4.27,0-7.37-1-9.27-2.86s-2.87-5-2.87-9.27V149a99.41,99.41,0,0,1,3.21-23.25,254.39,254.39,0,0,1,9.94-30.67l29.32-76.5a15.75,15.75,0,0,1,6.23-8.42q4.21-2.7,10.95-2.7h90.66a19.32,19.32,0,0,1,10.61,2.7,15.81,15.81,0,0,1,6.24,8.42l29.32,76.5a258,258,0,0,1,9.94,30.67,99.88,99.88,0,0,1,3.2,23.25v89q0,6.4-2.86,9.27t-9.27,2.86h-50.89q-6.75,0-9.94-2.86T2313,238V190.78h-59.65ZM2272.6,78.22l-15.84,51.22h52.91l-15.84-51.22a12.88,12.88,0,0,0-2.87-4.38,5.15,5.15,0,0,0-3.54-1.35H2279a5.15,5.15,0,0,0-3.54,1.35A12.73,12.73,0,0,0,2272.6,78.22Z"/><path class="cls-2" d="M2377.07,256.59h-50.89c-6.12,0-10.93-1.52-14.28-4.52-3.55-3.17-5.36-7.92-5.36-14.11V197.28h-46.65V238c0,6-1.61,10.7-4.77,13.86s-7.83,4.77-13.86,4.77h-49.54c-6,0-10.72-1.6-13.87-4.77s-4.77-7.82-4.77-13.86V149a106.23,106.23,0,0,1,3.39-24.79,262.81,262.81,0,0,1,10.19-31.46L2216,16.32a22.14,22.14,0,0,1,8.82-11.65C2228.64,2.2,2233.5,1,2239.23,1h90.66A25.76,25.76,0,0,1,2344,4.67a22.21,22.21,0,0,1,8.84,11.65l29.29,76.42a263.81,263.81,0,0,1,10.18,31.46A106.57,106.57,0,0,1,2395.7,149v89c0,6-1.6,10.7-4.77,13.86S2383.1,256.59,2377.07,256.59Zm-130.18-72.31h72.65V238c0,2.58.53,4,1,4.42.33.29,1.67,1.21,5.62,1.21h50.89c3.6,0,4.57-.86,4.67-1s1-1.06,1-4.67V149a93.56,93.56,0,0,0-3-21.72A252.74,252.74,0,0,0,2370,97.4l-29.38-76.67a9.44,9.44,0,0,0-3.62-5.11,13.09,13.09,0,0,0-7.1-1.67h-90.66c-3.21,0-5.71.56-7.45,1.67a9.52,9.52,0,0,0-3.6,5.11l-.06.17L2198.8,97.4a249.33,249.33,0,0,0-9.7,29.87,93.82,93.82,0,0,0-3,21.72v89c0,3.61.86,4.57,1,4.66s1.07,1,4.68,1h49.54c3.6,0,4.57-.86,4.67-1s1-1.06,1-4.67Zm71.59-48.34h-70.54l18.71-60.35a18.91,18.91,0,0,1,4.49-6.61,11.68,11.68,0,0,1,7.86-3h8.42a11.66,11.66,0,0,1,7.85,3,19,19,0,0,1,4.5,6.6l.27.73Zm-52.91-13h35.28l-13.11-42.4a10.48,10.48,0,0,0-.86-1.55h-7.33a9.37,9.37,0,0,0-.86,1.54Z"/><path class="cls-1" d="M2543.21,250.09H2436.72c-4.27,0-7.37-1-9.27-2.86s-2.87-5-2.87-9.27V198.53q0-6.41,2.87-9.27c1.9-1.9,5-2.86,9.27-2.86h90.65a7.75,7.75,0,0,0,6.57-2.87,11,11,0,0,0,2.19-6.91q0-5.72-2.19-8.42a8.87,8.87,0,0,0-6.57-3l-50.55-7.08q-23.59-3.36-37.91-15.5t-14.33-40.44V66.76q0-28.64,18.54-44t51.22-15.33h94.36q6.4,0,9.27,2.86t2.87,9.27V59.69q0,6.41-2.87,9.26t-9.27,2.87h-78.52a8.26,8.26,0,0,0-6.74,2.86,11,11,0,0,0-2.36,7.25,11.71,11.71,0,0,0,2.36,7.41,9,9,0,0,0,6.74,3.37l50.22,6.74q23.58,3.38,38.08,15.5T2613,155.39v35.39q0,28.65-18.71,44T2543.21,250.09Z"/><path class="cls-2" d="M2543.21,256.59H2436.72c-6,0-10.72-1.6-13.87-4.77s-4.77-7.82-4.77-13.86V198.53c0-6,1.61-10.7,4.77-13.87s7.83-4.76,13.87-4.76h90.65c.44,0,1.2,0,1.41-.32a4.53,4.53,0,0,0,.85-3c0-3.38-.73-4.32-.74-4.33a3.36,3.36,0,0,0-2-.64l-.4-.05-50.55-7.07c-16.9-2.41-30.76-8.12-41.22-17-11-9.34-16.62-24.62-16.62-45.4V66.76c0-21,7-37.52,20.9-49C2452.47,6.61,2471.1,1,2494.34,1h94.36c6,0,10.69,1.6,13.86,4.76s4.78,7.84,4.78,13.87V59.69c0,6-1.61,10.7-4.77,13.86s-7.83,4.77-13.87,4.77h-78.52c-1.31,0-1.6.34-1.72.49a4.51,4.51,0,0,0-.88,3.12,5.19,5.19,0,0,0,1,3.42c.21.27.6.77,2.1.88l.38,0L2561.26,93c16.93,2.42,30.83,8.12,41.39,17,11.16,9.35,16.82,24.63,16.82,45.42v35.39c0,21.05-7.1,37.54-21.09,49C2584.79,250.94,2566.22,256.59,2543.21,256.59ZM2436.72,192.9c-3.61,0-4.58.86-4.67,1s-1,1.06-1,4.67V238c0,3.61.86,4.57,1,4.66s1.07,1,4.68,1h106.49c19.93,0,35.72-4.66,46.93-13.86,11-9,16.33-21.74,16.33-38.95V155.39c0-16.76-4.09-28.69-12.17-35.45-8.67-7.26-20.39-12-34.82-14l-50-6.71a15.41,15.41,0,0,1-11.18-5.86,18,18,0,0,1-3.73-11.39,17.37,17.37,0,0,1,3.85-11.38,14.54,14.54,0,0,1,11.75-5.23h78.52c3.61,0,4.58-.87,4.68-1s1-1.07,1-4.67V19.58c0-3.6-.87-4.58-1-4.67s-1.06-1-4.67-1h-94.36c-20.14,0-36,4.66-47.08,13.84-10.88,9-16.18,21.76-16.18,39v35.39c0,16.79,4.05,28.72,12,35.48,8.56,7.25,20.21,12,34.63,14l50.35,7a15.23,15.23,0,0,1,10.89,5.39c2.46,3,3.65,7.14,3.65,12.53a17.44,17.44,0,0,1-3.53,10.86c-1.89,2.47-5.46,5.42-11.73,5.42Z"/><path class="cls-1" d="M2760.91,250.09h-54.59q-6.41,0-9.27-2.86t-2.86-9.27V72.49h-49.54c-4.27,0-7.37-.95-9.27-2.86s-2.87-5-2.87-9.27V19.58q0-6.39,2.87-9.27c1.9-1.9,5-2.86,9.27-2.86h177.93q6.4,0,9.27,2.86t2.87,9.27V60.36q0,6.4-2.87,9.27t-9.27,2.86H2773V238q0,6.4-2.86,9.27T2760.91,250.09Z"/><path class="cls-2" d="M2760.91,256.59h-54.59c-6.05,0-10.71-1.6-13.87-4.77s-4.76-7.82-4.76-13.86V79h-43c-6.05,0-10.71-1.61-13.87-4.77S2626,66.4,2626,60.36V19.58c0-6,1.61-10.7,4.77-13.86S2638.61,1,2644.65,1h177.93c6,0,10.69,1.6,13.86,4.76s4.78,7.85,4.78,13.87V60.36c0,6-1.61,10.7-4.77,13.86S2828.62,79,2822.58,79h-43V238c0,6-1.6,10.7-4.77,13.86S2767,256.59,2760.91,256.59ZM2644.65,14c-3.61,0-4.58.86-4.67,1s-1,1.07-1,4.67V60.36c0,3.61.86,4.57,1,4.66s1.07,1,4.68,1h56V238c0,3.61.85,4.57.95,4.66s1.07,1,4.68,1h54.59c3.61,0,4.57-.86,4.67-1s1-1.06,1-4.67V66h56c3.61,0,4.58-.86,4.67-1s1-1.07,1-4.67V19.58c0-3.6-.87-4.58-1-4.68s-1.06-1-4.67-1Z"/><path class="cls-1" d="M2922.67,238q0,6.4-2.86,9.27t-9.27,2.86H2861q-6.4,0-9.27-2.86t-2.86-9.27V149a99.35,99.35,0,0,1,3.2-23.25A256.19,256.19,0,0,1,2862,95.07l29.32-76.5a15.76,15.76,0,0,1,6.24-8.42q4.2-2.7,10.95-2.7h90.65a19.33,19.33,0,0,1,10.62,2.7,15.85,15.85,0,0,1,6.23,8.42l29.32,76.5a256.19,256.19,0,0,1,9.94,30.67,99.35,99.35,0,0,1,3.2,23.25v89q0,6.4-2.86,9.27t-9.27,2.86h-50.88q-6.75,0-9.95-2.86t-3.2-9.27V190.78h-59.65Zm19.21-159.74L2926,129.44H2979l-15.84-51.22a12.88,12.88,0,0,0-2.86-4.38,5.15,5.15,0,0,0-3.54-1.35h-8.42a5.15,5.15,0,0,0-3.54,1.35A12.88,12.88,0,0,0,2941.88,78.22Z"/><path class="cls-2" d="M3046.35,256.59h-50.88c-6.13,0-10.93-1.52-14.28-4.52-3.56-3.17-5.37-7.92-5.37-14.11V197.28h-46.65V238c0,6-1.6,10.7-4.77,13.86s-7.82,4.77-13.86,4.77H2861c-6,0-10.71-1.6-13.87-4.77s-4.76-7.82-4.76-13.86V149a106.23,106.23,0,0,1,3.39-24.79A262.81,262.81,0,0,1,2856,92.74l29.28-76.42a22.2,22.2,0,0,1,8.83-11.65c3.86-2.47,8.73-3.72,14.46-3.72h90.65a25.82,25.82,0,0,1,14.12,3.72,22.19,22.19,0,0,1,8.83,11.65l29.29,76.42a266.49,266.49,0,0,1,10.19,31.46A106.51,106.51,0,0,1,3065,149v89c0,6-1.6,10.7-4.76,13.86S3052.39,256.59,3046.35,256.59Zm-130.18-72.31h72.65V238c0,2.58.53,4,1,4.42.33.29,1.66,1.21,5.62,1.21h50.88c3.61,0,4.58-.86,4.67-1s1-1.06,1-4.67V149a94,94,0,0,0-3-21.72,253,253,0,0,0-9.7-29.87l-29.38-76.66a9.47,9.47,0,0,0-3.61-5.12,13.12,13.12,0,0,0-7.11-1.67h-90.65c-3.21,0-5.72.56-7.45,1.67a9.48,9.48,0,0,0-3.61,5.11l-.06.17-29.32,76.5a250.9,250.9,0,0,0-9.69,29.87,93.28,93.28,0,0,0-3,21.72v89c0,3.61.86,4.57,1,4.66s1.07,1,4.68,1h49.54c3.61,0,4.57-.86,4.67-1s1-1.06,1-4.67Zm71.6-48.34h-70.54l18.71-60.35a18.78,18.78,0,0,1,4.49-6.61,11.66,11.66,0,0,1,7.86-3h8.42a11.68,11.68,0,0,1,7.85,3,19,19,0,0,1,4.49,6.6l.27.73Zm-52.91-13h35.28L2957,80.54a11.24,11.24,0,0,0-.87-1.55h-7.33a10.21,10.21,0,0,0-.86,1.54Z"/><path class="cls-1" d="M3261.36,250.09h-82.23q-42.14,0-62.51-16.85t-20.39-51.9V76.53q0-35,20.39-52.06t62.51-17h82.23c4.26,0,7.36,1,9.27,2.86s2.86,5,2.86,9.27V60.36q0,6.4-2.86,9.27c-1.91,1.91-5,2.86-9.27,2.86h-67.74q-10.44,0-15.5,4.21t-5.06,12.64v80.21q0,8.43,5.06,12.3t15.5,3.87h67.74c4.26,0,7.36,1,9.27,2.87s2.86,5,2.86,9.27V238q0,6.4-2.86,9.27C3268.72,249.14,3265.62,250.09,3261.36,250.09Z"/><path class="cls-2" d="M3261.36,256.59h-82.23c-29.51,0-51.94-6.17-66.65-18.34-15.1-12.47-22.75-31.61-22.75-56.91V76.53c0-25.27,7.64-44.47,22.72-57C3127.18,7.18,3149.62,1,3179.13,1h82.23c6,0,10.69,1.6,13.86,4.76s4.77,7.85,4.77,13.87V60.36c0,6-1.6,10.7-4.76,13.86S3267.39,79,3261.36,79h-67.74c-5.29,0-9.21.94-11.34,2.71-.67.56-2.72,2.26-2.72,7.64v80.21c0,5.22,1.89,6.66,2.51,7.14,1.51,1.16,4.74,2.53,11.55,2.53h67.74c6,0,10.69,1.61,13.86,4.77s4.77,7.84,4.77,13.87V238c0,6-1.6,10.7-4.76,13.86S3267.39,256.59,3261.36,256.59ZM3179.13,14c-26.39,0-46,5.22-58.35,15.51-12.15,10.14-18.05,25.54-18.05,47.07V181.34c0,21.53,5.9,36.87,18,46.89,12.33,10.19,32,15.36,58.37,15.36h82.23c3.61,0,4.57-.86,4.67-1s1-1.06,1-4.67v-40.1c0-3.61-.87-4.58-1-4.68s-1.06-1-4.66-1h-67.74c-8.51,0-14.88-1.7-19.46-5.21-3.46-2.66-7.6-7.84-7.6-17.46V89.34c0-7.6,2.49-13.54,7.4-17.63,4.62-3.85,11.05-5.72,19.66-5.72h67.74c3.61,0,4.57-.86,4.67-1s1-1.06,1-4.67V19.58c0-3.6-.87-4.58-1-4.68s-1.06-1-4.66-1Z"/><path class="cls-1" d="M3375.94,250.09H3323.7q-6.4,0-9.27-2.86t-2.86-9.27V19.58q0-6.39,2.86-9.27t9.27-2.86h52.24q6.39,0,9.26,2.86t2.87,9.27V97.09h13.48l34.71-78.52q2.35-6.06,6.4-8.59a19.42,19.42,0,0,1,10.45-2.53H3505c3.82,0,6.4,1,7.75,2.86s1.23,4.67-.34,8.26l-34.37,78.52q18.87,1,30.16,13.31t11.29,32.52v95q0,6.4-2.86,9.27t-9.27,2.86h-51.9q-6.41,0-9.27-2.86t-2.86-9.27V172.24q0-5.38-2.7-8.42t-8.09-3h-44.48V238q0,6.4-2.87,9.27T3375.94,250.09Z"/><path class="cls-2" d="M3507.37,256.59h-51.9c-6,0-10.71-1.6-13.87-4.77s-4.76-7.82-4.76-13.86V172.24c0-1.33-.19-3.12-1.06-4.11-.62-.7-2.1-.84-3.23-.84h-38V238c0,6-1.61,10.7-4.77,13.86s-7.83,4.77-13.86,4.77H3323.7c-6,0-10.71-1.6-13.87-4.77s-4.76-7.82-4.76-13.86V19.58c0-6,1.6-10.7,4.77-13.86S3317.67,1,3323.7,1h52.24c6,0,10.69,1.6,13.85,4.76s4.78,7.84,4.78,13.87v71h2.75l32.94-74.52c2.08-5.28,5.09-9.19,9-11.6A25.79,25.79,0,0,1,3453.11,1H3505c6,0,10.43,1.89,13.06,5.61,1.89,2.68,3.47,7.38.31,14.61l-30.9,70.59A46.63,46.63,0,0,1,3513,106c8.63,9.4,13,21.82,13,36.91v95c0,6-1.6,10.7-4.77,13.86S3513.4,256.59,3507.37,256.59Zm-125.8-102.3h51c6.87,0,10.83,2.83,12.95,5.21,2.88,3.24,4.34,7.53,4.34,12.74V238c0,3.61.85,4.57.95,4.66s1.07,1,4.68,1h51.9c3.61,0,4.57-.86,4.67-1s1-1.06,1-4.67v-95c0-11.89-3.13-21.09-9.58-28.12s-14.81-10.63-25.72-11.22l-9.37-.5L3506.47,16a9.92,9.92,0,0,0,.63-1.83A10.11,10.11,0,0,0,3505,14h-51.9a13.31,13.31,0,0,0-7,1.54c-1.47.92-2.75,2.75-3.79,5.43l-.11.28-36.43,82.39h-24.21v-84c0-3.6-.87-4.58-1-4.68s-1.06-1-4.66-1H3323.7c-3.6,0-4.57.86-4.67,1s-1,1.07-1,4.67V238c0,3.61.86,4.57.95,4.66s1.07,1,4.68,1h52.24c3.6,0,4.57-.86,4.67-1s1-1.06,1-4.67Z"/><path class="cls-3" d="M1090.66,739q0,12.51-5.59,18.09t-18.1,5.6H970.24q-12.51,0-18.09-5.6T946.55,739V565.32q0-19.74,6.26-45.4T972.22,460l57.24-149.37q4-11.18,12.18-16.45T1063,289h177q12.49,0,20.72,5.26t12.18,16.45L1330.17,460q13.15,34.23,19.42,59.88t6.25,45.4V739q0,12.51-5.6,18.09t-18.09,5.6h-99.36q-13.17,0-19.41-5.6T1207.13,739V646.92H1090.66Zm37.51-311.9-30.93,100h103.31l-30.93-100q-2.64-5.92-5.59-8.55a10.12,10.12,0,0,0-6.91-2.64h-16.45a10.1,10.1,0,0,0-6.91,2.64Q1130.79,421.22,1128.17,427.14Z"/><path class="cls-2" d="M1332.15,769.23h-99.36c-10.39,0-18.38-2.45-23.75-7.26-5.58-5-8.41-12.69-8.41-22.93V653.42H1097.16V739c0,10.08-2.52,17.71-7.5,22.69s-12.61,7.5-22.69,7.5H970.24c-10.09,0-17.73-2.53-22.69-7.51s-7.5-12.59-7.5-22.68V565.32c0-13.64,2.17-29.44,6.44-46.94,4.21-17.31,10.83-37.73,19.66-60.67l57.21-149.29c3.12-8.77,8.09-15.39,14.77-19.67,6.53-4.18,14.9-6.29,24.89-6.29h177c9.54,0,17.69,2.11,24.22,6.28,6.7,4.3,11.67,10.92,14.78,19.68l57.21,149.29c8.82,22.94,15.44,43.36,19.66,60.67,4.27,17.55,6.44,33.34,6.44,46.94V739c0,10.08-2.53,17.71-7.5,22.69S1342.23,769.23,1332.15,769.23Zm-248-128.81h129.47V739c0,6.37,1.37,10.83,4.07,13.24,2.93,2.62,8,4,15.09,4h99.36c6.42,0,11.08-1.28,13.5-3.69s3.69-7.09,3.69-13.5V565.32c0-12.57-2-27.32-6.07-43.86-4.09-16.78-10.54-36.66-19.16-59.09L1266.8,312.84c-2.16-6.1-5.28-10.4-9.56-13.15s-10.19-4.23-17.21-4.23H1063c-7.47,0-13.48,1.42-17.88,4.24s-7.39,7-9.55,13.13l-.06.17L978.29,462.37c-8.64,22.44-15.09,42.31-19.17,59.09-4,16.5-6.07,31.25-6.07,43.86V739c0,6.42,1.28,11.09,3.69,13.49s7.08,3.7,13.5,3.7H1067c6.42,0,11.09-1.28,13.5-3.69s3.69-7.09,3.69-13.5Zm125.2-106.76H1088.43l33.79-109.15c2.14-4.84,4.5-8.36,7.22-10.78a16.7,16.7,0,0,1,11.23-4.28h16.45a16.69,16.69,0,0,1,11.22,4.27c2.7,2.41,5.06,5.93,7.22,10.77l.27.73Zm-103.31-13h85.68l-28.2-91.22c-1.73-3.79-3.13-5.38-3.83-6a3.59,3.59,0,0,0-2.58-1h-16.45a3.64,3.64,0,0,0-2.6,1c-.69.61-2.1,2.21-3.81,6Z"/><path class="cls-3" d="M1562.45,762.73h-102q-12.51,0-18.1-5.6T1436.77,739V312.65q0-12.5,5.59-18.1t18.1-5.59h201.35q89.48,0,122.39,35.53t32.9,92.78V501.5q0,57.24-32.9,92.77t-122.39,35.54h-75.67V739q0,12.51-5.6,18.09T1562.45,762.73ZM1584.82,412v99.36H1644q19.08,0,25-9.87a42.72,42.72,0,0,0,5.92-22.38V444.25a42.71,42.71,0,0,0-5.92-22.37q-5.92-9.87-25-9.87Z"/><path class="cls-2" d="M1562.45,769.23h-102c-10.1,0-17.73-2.53-22.7-7.51s-7.49-12.59-7.49-22.68V312.65c0-10.09,2.52-17.72,7.5-22.7s12.61-7.49,22.69-7.49h201.35c61.26,0,104,12.65,127.16,37.61s34.63,57.53,34.63,97.2v84.22c0,39.68-11.65,72.38-34.63,97.2s-65.9,37.62-127.16,37.62h-69.17V739c0,10.08-2.53,17.71-7.5,22.69S1572.53,769.23,1562.45,769.23Zm-102-473.77c-6.42,0-11.09,1.27-13.5,3.69s-3.69,7.08-3.69,13.5V739c0,6.42,1.27,11.09,3.68,13.49s7.08,3.7,13.51,3.7h102c6.42,0,11.08-1.28,13.5-3.69s3.69-7.09,3.69-13.5V623.31h82.17c57.49,0,97.06-11.26,117.62-33.45,20.68-22.34,31.17-52.07,31.17-88.37V417.27c0-36.29-10.49-66-31.17-88.36s-60.13-33.45-117.62-33.45ZM1644,517.87h-65.72V405.51H1644c15.11,0,25.4,4.38,30.58,13a49.3,49.3,0,0,1,6.85,25.72v34.87a49.28,49.28,0,0,1-6.85,25.72C1669.44,513.48,1659.15,517.87,1644,517.87Zm-52.72-13H1644c10.22,0,16.76-2.26,19.43-6.72a36,36,0,0,0,5-19V444.25a36,36,0,0,0-5-19c-2.67-4.46-9.21-6.71-19.43-6.71h-52.72Z"/><path class="cls-3" d="M2011.21,762.73h-102q-12.49,0-18.09-5.6T1885.53,739V312.65q0-12.5,5.59-18.1t18.09-5.59h201.36Q2200,289,2233,324.49t32.9,92.78V501.5q0,57.24-32.9,92.77t-122.39,35.54h-75.68V739q0,12.51-5.59,18.09T2011.21,762.73ZM2033.58,412v99.36h59.22q19.08,0,25-9.87a42.63,42.63,0,0,0,5.93-22.38V444.25a42.62,42.62,0,0,0-5.93-22.37q-5.91-9.87-25-9.87Z"/><path class="cls-2" d="M2011.21,769.23h-102c-10.1,0-17.74-2.53-22.7-7.51S1879,749.13,1879,739V312.65c0-10.09,2.52-17.72,7.49-22.7s12.61-7.49,22.7-7.49h201.35c61.25,0,104,12.65,127.15,37.61s34.64,57.53,34.64,97.2v84.22c0,39.68-11.66,72.38-34.63,97.2-23.12,25-65.91,37.62-127.16,37.62h-69.18V739c0,10.08-2.52,17.71-7.49,22.69S2021.29,769.23,2011.21,769.23Zm-102-473.77c-6.42,0-11.09,1.27-13.5,3.69s-3.69,7.08-3.69,13.5V739c0,6.42,1.27,11.09,3.68,13.49s7.08,3.7,13.51,3.7h102c6.41,0,11.08-1.28,13.49-3.69s3.69-7.09,3.69-13.5V623.31h82.18c57.49,0,97.06-11.26,117.62-33.45,20.68-22.34,31.17-52.07,31.17-88.37V417.27c0-36.29-10.49-66-31.17-88.36s-60.13-33.45-117.62-33.45ZM2092.8,517.87h-65.72V405.51h65.72c15.1,0,25.39,4.38,30.58,13a49.28,49.28,0,0,1,6.85,25.72v34.87a49.28,49.28,0,0,1-6.85,25.72C2118.19,513.48,2107.9,517.87,2092.8,517.87Zm-52.72-13h52.72c10.22,0,16.76-2.26,19.43-6.72a36,36,0,0,0,5-19V444.25a36,36,0,0,0-5-19c-2.67-4.46-9.21-6.71-19.43-6.71h-52.72Z"/><path class="cls-3" d="M2663.29,762.73H2358q-12.51,0-18.09-5.6t-5.6-18.09V312.65q0-12.5,5.6-18.1T2358,289h305.32q12.49,0,18.09,5.59t5.6,18.1v77q0,12.51-5.6,18.1t-18.09,5.59H2481.68V464H2610q12.5,0,18.1,5.59t5.59,18.1v70.4q0,12.51-5.59,18.1t-18.1,5.59H2481.68v56.59h181.61q12.49,0,18.09,5.59t5.6,18.1v77q0,12.51-5.6,18.09T2663.29,762.73Z"/><path class="cls-2" d="M2663.29,769.23H2358c-10.09,0-17.73-2.53-22.7-7.51s-7.49-12.59-7.49-22.68V312.65c0-10.09,2.53-17.72,7.5-22.7s12.61-7.49,22.69-7.49h305.32c10.07,0,17.7,2.52,22.68,7.49s7.51,12.63,7.51,22.7v77c0,10.08-2.52,17.72-7.5,22.69s-12.61,7.5-22.69,7.5H2488.18v37.67H2610c10.07,0,17.7,2.52,22.68,7.49s7.51,12.63,7.51,22.7v70.4c0,10.09-2.52,17.72-7.5,22.7s-12.61,7.49-22.69,7.49H2488.18v43.59h175.11c10.07,0,17.7,2.52,22.68,7.49s7.51,12.63,7.51,22.7v77c0,10.08-2.52,17.71-7.5,22.69S2673.37,769.23,2663.29,769.23ZM2358,295.46c-6.41,0-11.08,1.27-13.5,3.69s-3.69,7.08-3.69,13.5V739c0,6.42,1.28,11.09,3.69,13.49s7.08,3.7,13.5,3.7h305.32c6.42,0,11.08-1.28,13.5-3.69s3.69-7.09,3.69-13.5v-77c0-6.41-1.28-11.08-3.7-13.51s-7.08-3.68-13.49-3.68H2475.18V575.27H2610c6.42,0,11.09-1.27,13.5-3.69s3.69-7.08,3.69-13.5v-70.4c0-6.41-1.28-11.08-3.7-13.51s-7.08-3.68-13.49-3.68H2475.18V406.82h188.11c6.42,0,11.09-1.27,13.5-3.69s3.69-7.08,3.69-13.5v-77c0-6.41-1.28-11.08-3.7-13.51s-7.08-3.68-13.49-3.68Z"/><path class="cls-3" d="M2988.34,762.73h-106.6q-12.51,0-18.09-5.6t-5.6-18.09V416h-96.72q-12.51,0-18.1-5.59t-5.59-18.09V312.65q0-12.5,5.59-18.1t18.1-5.59h347.43q12.48,0,18.09,5.59t5.59,18.1v79.62q0,12.5-5.59,18.09T3108.76,416H3012V739q0,12.51-5.59,18.09T2988.34,762.73Z"/><path class="cls-2" d="M2988.34,769.23h-106.6c-10.09,0-17.73-2.53-22.69-7.51s-7.49-12.59-7.49-22.68V422.45h-90.23c-10.1,0-17.73-2.52-22.7-7.5s-7.49-12.59-7.49-22.68V312.65c0-10.09,2.52-17.72,7.5-22.7s12.61-7.49,22.69-7.49h347.43c10.06,0,17.7,2.52,22.68,7.49s7.5,12.63,7.5,22.7v79.62c0,10.08-2.52,17.71-7.49,22.69s-12.61,7.49-22.69,7.49h-90.23V739c0,10.08-2.52,17.71-7.5,22.69S2998.42,769.23,2988.34,769.23Zm-227-473.77c-6.42,0-11.09,1.27-13.5,3.69s-3.69,7.08-3.69,13.5v79.62c0,6.42,1.27,11.09,3.68,13.49s7.08,3.69,13.51,3.69h103.23V739c0,6.42,1.27,11.09,3.68,13.49s7.08,3.7,13.5,3.7h106.6c6.42,0,11.09-1.28,13.5-3.69s3.69-7.09,3.69-13.5V409.45h103.23c6.41,0,11.08-1.27,13.5-3.69s3.68-7.08,3.68-13.49V312.65c0-6.41-1.27-11.08-3.69-13.51s-7.08-3.68-13.49-3.68Z"/><path class="cls-3" d="M3209.43,762.73q-12.51,0-18.1-5.6T3185.74,739V660.73q0-12.48,5.59-18.09t18.1-5.59h65.14V416h-65.14q-12.51,0-18.1-5.59t-5.59-18.09V312.65q0-12.5,5.59-18.1t18.1-5.59h280.31q12.5,0,18.09,5.59t5.6,18.1v79.62q0,12.5-5.6,18.09T3489.74,416h-63.83v221.1h63.83q12.5,0,18.09,5.59t5.6,18.09V739q0,12.51-5.6,18.09t-18.09,5.6Z"/><path class="cls-2" d="M3489.74,769.23H3209.43c-10.1,0-17.74-2.53-22.7-7.51s-7.49-12.59-7.49-22.68V660.73c0-10.08,2.52-17.71,7.49-22.69s12.61-7.49,22.7-7.49h58.64V422.45h-58.64c-10.1,0-17.74-2.52-22.7-7.5s-7.49-12.59-7.49-22.68V312.65c0-10.09,2.52-17.72,7.49-22.7s12.61-7.49,22.7-7.49h280.31c10.06,0,17.7,2.52,22.68,7.49s7.51,12.63,7.51,22.7v79.62c0,10.08-2.52,17.71-7.5,22.69s-12.61,7.49-22.69,7.49h-57.33v208.1h57.33c10.07,0,17.7,2.52,22.68,7.48s7.51,12.64,7.51,22.7V739c0,10.08-2.52,17.71-7.5,22.69S3499.82,769.23,3489.74,769.23ZM3209.43,643.55c-6.42,0-11.09,1.27-13.5,3.69s-3.69,7.08-3.69,13.49V739c0,6.42,1.27,11.09,3.68,13.49s7.08,3.7,13.51,3.7h280.31c6.42,0,11.08-1.28,13.5-3.7s3.69-7.08,3.69-13.49V660.73c0-6.41-1.28-11.08-3.7-13.5s-7.08-3.68-13.49-3.68h-70.33V409.45h70.33c6.42,0,11.08-1.27,13.5-3.69s3.69-7.08,3.69-13.49V312.65c0-6.41-1.28-11.08-3.7-13.51s-7.08-3.68-13.49-3.68H3209.43c-6.42,0-11.09,1.27-13.5,3.69s-3.69,7.08-3.69,13.5v79.62c0,6.42,1.27,11.09,3.68,13.49s7.08,3.69,13.51,3.69h71.64v234.1Z"/><path class="cls-3" d="M3929.29,762.73H3602.91q-12.51,0-18.09-5.6t-5.6-18.09V650.86a57.37,57.37,0,0,1,4-22,63.72,63.72,0,0,1,12.5-18.75L3755.57,416H3614.76q-12.51,0-18.1-5.59t-5.59-18.09V312.65q0-12.5,5.59-18.1t18.1-5.59h302.68q12.49,0,18.1,5.59t5.59,18.1v98q0,13.17-4,22.7a63.33,63.33,0,0,1-12.5,18.75L3772,637.05h157.27q12.48,0,18.09,5.59t5.59,18.09V739q0,12.51-5.59,18.09T3929.29,762.73Z"/><path class="cls-2" d="M3929.29,769.23H3602.91c-10.09,0-17.73-2.53-22.69-7.51s-7.5-12.59-7.5-22.68V650.86a63.93,63.93,0,0,1,4.45-24.52,70.1,70.1,0,0,1,13.61-20.55l151-183.34h-127c-10.1,0-17.74-2.52-22.7-7.5s-7.49-12.59-7.49-22.68V312.65c0-10.09,2.52-17.72,7.49-22.7s12.62-7.49,22.7-7.49h302.68c10.07,0,17.7,2.52,22.69,7.49s7.5,12.63,7.5,22.7v98c0,9.6-1.49,18.07-4.44,25.19a70.14,70.14,0,0,1-13.62,20.55L3785.82,630.55h143.47c10.06,0,17.7,2.52,22.68,7.49s7.5,12.62,7.5,22.69V739c0,10.08-2.52,17.71-7.49,22.69S3939.37,769.23,3929.29,769.23ZM3614.76,295.46c-6.42,0-11.09,1.27-13.5,3.69s-3.69,7.08-3.69,13.5v79.62c0,6.42,1.27,11.09,3.68,13.49s7.08,3.69,13.51,3.69h154.59l-168.91,205a57.27,57.27,0,0,0-11.26,16.82,51.17,51.17,0,0,0-3.46,19.55V739c0,6.42,1.28,11.09,3.69,13.49s7.08,3.7,13.5,3.7h326.38c6.41,0,11.08-1.28,13.5-3.69s3.68-7.09,3.68-13.5V660.73c0-6.41-1.27-11.08-3.69-13.5s-7.08-3.68-13.49-3.68H3758.23l161.69-195.83a57.62,57.62,0,0,0,11.26-16.81c2.29-5.54,3.45-12.34,3.45-20.22v-98c0-6.42-1.28-11.09-3.7-13.51s-7.08-3.68-13.49-3.68Z"/><path class="cls-3" d="M4357.64,762.73H4052.33q-12.51,0-18.1-5.6T4028.64,739V312.65q0-12.5,5.59-18.1t18.1-5.59h305.31q12.49,0,18.1,5.59t5.59,18.1v77q0,12.51-5.59,18.1t-18.1,5.59H4176V464h128.31q12.49,0,18.1,5.59t5.59,18.1v70.4q0,12.51-5.59,18.1t-18.1,5.59H4176v56.59h181.61q12.49,0,18.1,5.59t5.59,18.1v77q0,12.51-5.59,18.09T4357.64,762.73Z"/><path class="cls-2" d="M4357.64,769.23H4052.33c-10.1,0-17.73-2.53-22.7-7.51s-7.49-12.59-7.49-22.68V312.65c0-10.09,2.52-17.72,7.49-22.7s12.62-7.49,22.7-7.49h305.31c10.07,0,17.7,2.52,22.69,7.49s7.5,12.63,7.5,22.7v77c0,10.09-2.52,17.72-7.5,22.69s-12.6,7.5-22.69,7.5H4182.53v37.67h121.81c10.07,0,17.7,2.52,22.69,7.49s7.5,12.63,7.5,22.7v70.4c0,10.09-2.52,17.72-7.49,22.7s-12.61,7.49-22.7,7.49H4182.53v43.59h175.11c10.07,0,17.7,2.52,22.69,7.49s7.5,12.63,7.5,22.7v77c0,10.08-2.52,17.71-7.49,22.69S4367.73,769.23,4357.64,769.23ZM4052.33,295.46c-6.42,0-11.09,1.27-13.5,3.69s-3.69,7.08-3.69,13.5V739c0,6.42,1.27,11.09,3.68,13.49s7.08,3.7,13.51,3.7h305.31c6.42,0,11.09-1.28,13.5-3.69s3.69-7.09,3.69-13.5v-77c0-6.41-1.28-11.08-3.69-13.51s-7.09-3.68-13.5-3.68H4169.53V575.27h134.81c6.42,0,11.09-1.27,13.5-3.69s3.69-7.08,3.69-13.5v-70.4c0-6.41-1.28-11.08-3.69-13.51s-7.09-3.68-13.5-3.68H4169.53V406.82h188.11c6.42,0,11.09-1.27,13.5-3.69s3.69-7.08,3.69-13.5v-77c0-6.41-1.28-11.08-3.69-13.51s-7.09-3.68-13.5-3.68Z"/><path class="cls-3" d="M4584,762.73H4482.66q-12.51,0-18.1-5.6T4459,739V312.65q0-12.5,5.59-18.1t18.1-5.59h219.12q73.68,0,101.66,30.6t28,79.29v30.26q0,27.64-8.22,47.05t-28.62,28q35.52,3.94,57.57,29t22.05,66.46V739c0,8.34-1.88,14.37-5.6,18.09s-9.77,5.6-18.09,5.6h-102q-12.49,0-18.09-5.6T4724.81,739V638.36q0-14.46-5.6-21.38t-19.41-6.91h-92.12V739q0,12.51-5.59,18.09T4584,762.73Zm23.69-355.33v84.23H4657q17.1,0,23-8.89t5.92-22V438.33q0-13.15-5.92-22.05t-23-8.88Z"/><path class="cls-2" d="M4850.49,769.23h-102c-10.09,0-17.73-2.53-22.69-7.51s-7.49-12.59-7.49-22.68V638.36c0-8-1.44-13.94-4.15-17.3-2.42-3-7.25-4.49-14.36-4.49h-85.62V739c0,10.08-2.52,17.71-7.49,22.69s-12.62,7.5-22.7,7.5H4482.66c-10.1,0-17.73-2.53-22.7-7.51s-7.49-12.59-7.49-22.68V312.65c0-10.09,2.52-17.72,7.5-22.7s12.61-7.49,22.69-7.49h219.12c50.79,0,86.61,11,106.46,32.71,19.68,21.54,29.66,49.69,29.66,83.68v30.26c0,19.22-2.94,35.9-8.74,49.59A56.76,56.76,0,0,1,4812.55,501a90.69,90.69,0,0,1,44.46,27.8c15.7,17.83,23.67,41.63,23.67,70.76V739c0,10.08-2.53,17.71-7.5,22.69S4860.57,769.23,4850.49,769.23ZM4601.18,603.57h98.62c11.22,0,19.46,3.13,24.46,9.31,4.74,5.87,7.05,14.2,7.05,25.48V739c0,6.42,1.27,11.09,3.68,13.49s7.08,3.7,13.5,3.7h102c6.41,0,11.08-1.28,13.5-3.69s3.69-7.09,3.69-13.5V599.54c0-25.87-6.88-46.78-20.43-62.16-13.72-15.56-31.19-24.32-53.41-26.79l-24.91-2.77,23.11-9.69c12.08-5.06,20.31-13.07,25.15-24.51,5.12-12.07,7.71-27,7.71-44.51V398.85c0-30.64-8.83-55.84-26.26-74.91-17.28-18.9-49.87-28.48-96.86-28.48H4482.66c-6.42,0-11.09,1.27-13.5,3.69s-3.69,7.08-3.69,13.5V739c0,6.42,1.27,11.09,3.68,13.49s7.08,3.7,13.51,3.7H4584c6.42,0,11.09-1.28,13.5-3.7s3.69-7.08,3.69-13.49ZM4657,498.12h-55.85V400.9H4657c13.66,0,23.23,4,28.44,11.78,4.65,7,7,15.61,7,25.65V460.7c0,10-2.36,18.66-7,25.65C4680.26,494.16,4670.69,498.12,4657,498.12Zm-42.85-13H4657c9.05,0,15-2,17.62-6,3.21-4.81,4.83-11,4.83-18.44V438.33c0-7.43-1.62-13.63-4.83-18.44-2.65-4-8.57-6-17.62-6h-42.85Z"/><path class="cls-3" d="M5167.65,762.73H4959.71q-12.49,0-18.09-5.6T4936,739v-77q0-12.49,5.59-18.1t18.09-5.59h177q8.53,0,12.83-5.59a21.56,21.56,0,0,0,4.28-13.49q0-11.19-4.28-16.45t-12.83-5.92L5038,583.09q-46.07-6.57-74-30.27t-28-79V404.77q0-55.92,36.19-85.87t100-29.94h184.25q12.48,0,18.09,5.59c3.72,3.73,5.6,9.77,5.6,18.1V391c0,8.34-1.88,14.37-5.6,18.09s-9.77,5.6-18.09,5.6H5103.16q-8.57,0-13.16,5.59t-4.61,14.15a22.84,22.84,0,0,0,4.61,14.47q4.59,5.92,13.16,6.58l98,13.17q46.05,6.57,74.36,30.26t28.29,79v69.1q0,55.94-36.52,85.87T5167.65,762.73Z"/><path class="cls-2" d="M5167.65,769.23H4959.71c-10.09,0-17.73-2.53-22.69-7.51s-7.49-12.59-7.49-22.68v-77c0-10.08,2.52-17.72,7.49-22.69s12.61-7.5,22.69-7.5h177c4.78,0,6.67-1.74,7.67-3a15.11,15.11,0,0,0,2.94-9.54c0-7.33-1.54-10.77-2.83-12.36-1.69-2.07-4.4-3.23-8.29-3.53l-.39,0-98.7-13.81c-31.81-4.54-57.82-15.22-77.33-31.75-20.08-17-30.26-45.24-30.26-83.92V404.77c0-39.14,13-69.72,38.54-90.88,25.21-20.86,60.26-31.43,104.16-31.43h184.25c10.06,0,17.7,2.52,22.68,7.49s7.51,12.63,7.51,22.7V391c0,10.08-2.53,17.71-7.5,22.69s-12.61,7.5-22.69,7.5H5103.16c-4.92,0-7,1.84-8.14,3.22-2.1,2.55-3.13,5.83-3.13,10a16.37,16.37,0,0,0,3.24,10.48c1.94,2.5,4.65,3.8,8.52,4.09l.38,0,98,13.16c31.83,4.55,58,15.23,77.66,31.73,20.32,17,30.62,45.26,30.62,83.94v69.1c0,39.15-13.08,69.74-38.9,90.89C5246,758.66,5211.11,769.23,5167.65,769.23ZM4959.71,644.86c-6.41,0-11.08,1.28-13.5,3.69s-3.68,7.08-3.68,13.5v77c0,6.42,1.27,11.09,3.68,13.49s7.08,3.7,13.5,3.7h207.94c60.85,0,60.85,0,95.56-28.47,23-18.83,34.14-45.27,34.14-80.84v-69.1c0-34.65-8.73-59.54-26-74-17.83-14.93-41.76-24.62-71.11-28.82l-97.81-13.13c-7.49-.61-13.41-3.66-17.61-9.06a29.35,29.35,0,0,1-6-18.46c0-7.23,2-13.38,6.09-18.28,4.29-5.21,10.57-8,18.18-8h153.32c6.41,0,11.08-1.28,13.5-3.69s3.69-7.08,3.69-13.5v-78.3c0-6.41-1.28-11.08-3.7-13.51s-7.08-3.68-13.49-3.68H5072.23c-40.8,0-73,9.57-95.87,28.45s-33.83,45.28-33.83,80.86v69.09c0,34.68,8.63,59.58,25.66,74,17.62,14.92,41.42,24.61,70.75,28.79l98.49,13.79c7.41.62,13.18,3.41,17.16,8.28s5.74,11.49,5.74,20.56a28,28,0,0,1-5.62,17.44c-2.84,3.71-8.27,8.14-18,8.14Z"/><rect class="cls-4" x="66.79" y="382.15" width="748" height="75" rx="5"/><path class="cls-2" d="M809.79,382.15a5,5,0,0,1,5,5v65a5,5,0,0,1-5,5h-738a5,5,0,0,1-5-5v-65a5,5,0,0,1,5-5h738m0-10h-738a15,15,0,0,0-15,15v65a15,15,0,0,0,15,15h738a15,15,0,0,0,15-15v-65a15,15,0,0,0-15-15Z"/><g class="cls-5"><rect class="cls-6" x="719.79" y="382.15" width="40" height="75"/></g><g class="cls-5"><rect class="cls-6" x="617.79" y="382.15" width="20" height="75"/></g><g class="cls-5"><rect class="cls-6" x="504.79" y="382.15" width="30" height="75"/></g><g class="cls-5"><rect class="cls-6" x="414.79" y="382.15" width="28" height="75"/></g><g class="cls-5"><rect class="cls-6" x="285.79" y="382.15" width="26" height="75"/></g><g class="cls-5"><rect class="cls-6" x="204.79" y="382.15" width="40" height="75"/></g><g class="cls-5"><rect class="cls-6" x="113.79" y="382.15" width="12" height="75"/></g><g class="cls-5"><rect class="cls-6" x="139.79" y="382.15" width="20" height="75"/></g><g class="cls-5"><rect class="cls-6" x="355.66" y="382.15" width="20.13" height="75"/></g><g class="cls-5"><rect class="cls-6" x="658.79" y="382.15" width="13" height="75"/></g><g class="cls-5"><rect class="cls-6" x="780.66" y="382.15" width="9.13" height="75"/></g><g class="cls-5"><rect class="cls-6" x="565.1" y="382.15" width="21.7" height="75"/></g><g class="cls-5"><rect class="cls-6" x="466.79" y="382.15" width="13" height="75"/></g><rect class="cls-7" x="66.79" y="487.77" width="748" height="120" rx="60"/><path class="cls-2" d="M754.79,487.77a60,60,0,0,1,0,120h-628a60,60,0,0,1,0-120h628m0-10h-628a70,70,0,0,0,0,140h628a70,70,0,0,0,0-140Z"/><rect class="cls-8" x="167.27" y="516.77" width="42" height="12" rx="6"/><rect class="cls-8" x="214.27" y="571.77" width="42" height="12" rx="6"/><rect class="cls-8" x="319.27" y="535.77" width="42" height="12" rx="6"/><rect class="cls-8" x="407.27" y="586.77" width="42" height="12" rx="6"/><rect class="cls-8" x="443.27" y="504.77" width="42" height="12" rx="6"/><rect class="cls-8" x="536.27" y="555.77" width="42" height="12" rx="6"/><rect class="cls-8" x="613.27" y="510.77" width="42" height="12" rx="6"/><rect class="cls-8" x="678.27" y="571.77" width="42" height="12" rx="6"/><rect class="cls-8" x="748.27" y="529.77" width="42" height="12" rx="6"/><rect class="cls-8" x="88.27" y="561.77" width="42" height="12" rx="6"/><rect class="cls-9" x="66.79" y="617.77" width="748" height="25" rx="5.21"/><path class="cls-2" d="M809.59,617.77a5.2,5.2,0,0,1,5.2,5.21v14.59a5.2,5.2,0,0,1-5.2,5.2H72a5.21,5.21,0,0,1-5.21-5.2V623A5.21,5.21,0,0,1,72,617.77H809.59m0-10H72A15.23,15.23,0,0,0,56.79,623v14.59A15.23,15.23,0,0,0,72,652.77H809.59a15.22,15.22,0,0,0,15.2-15.2V623a15.22,15.22,0,0,0-15.2-15.21Z"/><rect class="cls-1" x="256.4" y="617.77" width="368.79" height="25" rx="3.66"/><path class="cls-2" d="M621.54,617.77a3.66,3.66,0,0,1,3.65,3.66v17.69a3.66,3.66,0,0,1-3.65,3.65H260.05a3.65,3.65,0,0,1-3.65-3.65V621.43a3.65,3.65,0,0,1,3.65-3.66H621.54m0-10H260.05a13.67,13.67,0,0,0-13.65,13.66v17.69a13.66,13.66,0,0,0,13.65,13.65H621.54a13.66,13.66,0,0,0,13.65-13.65V621.43a13.67,13.67,0,0,0-13.65-13.66Z"/><rect class="cls-2" x="688.3" y="617.77" width="9.97" height="12.5"/><rect class="cls-2" x="751.47" y="630.27" width="9.97" height="12.5"/><rect class="cls-2" x="561.97" y="630.27" width="9.97" height="12.5"/><rect class="cls-2" x="498.8" y="617.77" width="9.97" height="12.5"/><rect class="cls-2" x="435.64" y="630.27" width="9.97" height="12.5"/><rect class="cls-2" x="372.47" y="630.27" width="9.97" height="12.5"/><rect class="cls-2" x="309.3" y="617.77" width="9.97" height="12.5"/><rect class="cls-2" x="182.97" y="617.77" width="9.97" height="12.5"/><rect class="cls-2" x="114.82" y="630.27" width="9.97" height="12.5"/><path class="cls-10" d="M114.74,652.77v64a39.14,39.14,0,0,0,11.93,28.11l.09.1.49.45.6.55c.26.24.53.47.8.7l.61.51c.28.23.56.45.85.66l.63.49c.29.21.58.42.88.62s.43.31.65.45.6.4.91.59l.67.42.94.54.69.39,1,.5.71.35,1,.46.73.32,1,.4.74.29,1,.36.76.25c.35.11.71.2,1.07.3l.77.22,1.1.25.78.18c.37.08.76.14,1.14.2l.77.14c.4.06.8.1,1.2.15l.73.09c.45.05.9.08,1.35.11l.62,0c.66,0,1.32.06,2,.06H727.61c.63,0,1.26,0,1.89-.05l.6,0,1.27-.1.7-.08c.39,0,.77-.09,1.16-.15l.72-.11,1.12-.2.7-.14c.39-.08.78-.18,1.16-.27l.62-.15c.46-.12.92-.26,1.37-.39l.37-.11c.58-.19,1.16-.38,1.72-.59l.38-.14,1.3-.52.57-.25,1.07-.49c.21-.09.41-.2.62-.3s.67-.33,1-.51l.6-.33c.33-.18.66-.37,1-.57l.57-.33,1-.67.46-.3,1.45-1,.08-.07c.4-.3.81-.62,1.2-.94l0,0a39.22,39.22,0,0,0,14.48-30.39v-64Z"/><path class="cls-2" d="M766.85,652.77v64a39.22,39.22,0,0,1-14.48,30.39l0,0c-.39.32-.8.64-1.2.94l-.08.07-1.45,1-.46.3-1,.67-.57.33c-.32.2-.65.39-1,.57l-.6.33-1,.51c-.21.1-.41.21-.62.3l-1.07.49-.57.25-1.3.52-.38.14c-.56.21-1.14.4-1.72.59l-.37.11c-.45.13-.91.27-1.37.39l-.62.15c-.38.09-.77.19-1.16.27l-.7.14-1.12.2-.72.11c-.39.06-.77.11-1.16.15l-.7.08-1.27.1-.6,0c-.63,0-1.26.05-1.89.05H154c-.67,0-1.33,0-2-.06l-.62,0c-.45,0-.9-.06-1.35-.11l-.73-.09c-.4,0-.8-.09-1.2-.15l-.77-.14c-.38-.06-.77-.12-1.14-.2l-.78-.18-1.1-.25-.77-.22c-.36-.1-.72-.19-1.07-.3l-.76-.25-1-.36-.74-.29-1-.4-.73-.33c-.33-.14-.67-.29-1-.45l-.71-.35-1-.5-.68-.39-1-.54-.67-.42-.91-.59c-.22-.14-.44-.3-.65-.45s-.59-.41-.88-.62l-.63-.49c-.29-.21-.57-.43-.85-.66l-.61-.51c-.27-.23-.54-.46-.8-.7l-.6-.55-.49-.45-.09-.1a39.14,39.14,0,0,1-11.93-28.11v-64H766.85m10-10H104.74v74a48.82,48.82,0,0,0,14.71,35l.37.38.51.47.09.08,6.86-7.27-6.82,7.31.71.65,1,.88,0,0,.72.61,1.07.84.1.08.69.52,1.09.78.14.1.67.46,1.15.74.14.09.71.44c.38.23.78.46,1.18.68l.13.08.73.4,1.12.58.09,0,.18.09.72.35c.39.19.78.37,1.18.54l.08,0,.17.07.74.33c.37.16.76.31,1.14.45l.14.06.18.07.75.29,1.19.4.14.05.17.06.78.25,1.19.34.16,0,.18.05.78.22,1.19.28.19,0,.18,0,.8.18,1.2.22.22,0,.2,0,.78.14,1.31.17.2,0,.17,0c.25,0,.51.07.77.09.5.06,1,.09,1.55.13h.22l.69,0c.83,0,1.67.07,2.49.07H727.61c.76,0,1.54,0,2.37-.06l.61,0h.14l1.6-.13.78-.08h.11l1.44-.19.91-.14,1.41-.25.87-.18,1.47-.34.16,0,.62-.15c.57-.15,1.15-.32,1.72-.49l.48-.15c.71-.22,1.44-.47,2.16-.73l.46-.18c.55-.21,1.1-.42,1.64-.65l.57-.25.14-.06c.46-.2.91-.4,1.35-.61l.77-.38,1.26-.64.77-.42,1.22-.71.11-.07.59-.35c.45-.28.88-.55,1.31-.84l.1-.07.48-.31c.64-.44,1.23-.86,1.81-1.29l.18-.14c.51-.39,1-.75,1.43-1.12l.06,0,.06-.05.29-.24a49.08,49.08,0,0,0,17.79-37.83v-74Z"/><path class="cls-11" d="M114.74,652.77v64a39.14,39.14,0,0,0,11.93,28.11,2.12,2.12,0,0,1,1.67-3.54h0c19.48.91,18.21-11.66,4.66-21.39-2.84-2-5.73-4.48-7.16-7.42-3.22-6.65.79-12.52,7.12-10.54,2.92.92,4.58,3.84,6.79,4.25,1.37.26,2.81-.2,4.45-2.17a8.73,8.73,0,0,0,2.14-6c-.35-3-2.57-5.87-3.27-9.75v0a5.49,5.49,0,0,1,2.54-5.54c3.64-2.31,11-7.08,14.66-5.19,4.66,2.4,2.77,16.77,3.15,16.66,0,.3,0,.59,0,.89,0,4.27-.89,12.14,1.62,15.69,3.35,4.76,9.24,1.23,8.95-2-.15-1.62-1.52-3.24-1.79-5.13a4.49,4.49,0,0,1,4.47-5.3,2.36,2.36,0,0,1,.46,0c9.21,1,4.38,16.57,11.36,25.09,17,20.7,26.1-5.25,31.81-10,8.71-7.21,18.32,4.71,26.28-5.56,6.78-8.75,7.57,13.74,8.16,20.56.81,9.25,9.47,11.09,14.36-.43,4.45-10.52,8.36-27.61,13.68-26.25,4.12,1,2.82,5,6.13,6.71,4.6,2.33,11.9-6.76,18.33-12,7.5-6.06,13-1.74,9.79,4.25-3.81,7,1.18,12.55,5,8.44,6.6-7.05,12.57-6.5,11.53,3.58C333,719.93,336.37,719,338,722c6,11.48,12.86,2.17,17.94,2.78,9.38,1.13,2.76,13.57,8.23,15.51,8.38,3,15.94-19,25.26-5.17,2.18,3.22,8.11,6.38,12.46,2.82,2.22-1.81,2.71-5.51,3.21-9.19.91-6.67,2.41-11.52,10.25-12.08,13.6-1,8.22,13.22,21.06,16.63,11.1,2.94,28.57-1.7,26.54-16.25-.57-4-3.84-6.46-6.52-10.9-7.18-11.9,7.78-16.89,12.5-7.32,5.15,10.47,15.95,15.82,27,11.62,10.13-3.83,23.41-18.76,34.8-10.26,6.55,4.89,5.8,15.9,5.22,24.24-1.22,17.53,22.83,14.53,18.81,7.7-4.72-8,2.13-12.39,9.32-7.22,5.8,4.18,12.94-2.85,11.2-10.47-2-8.84,9.1-16.54,18.31-9.72,5,3.68,7.39,3.08,9.58,1.25,3.06-2.55,5.21-6.25,9.32-7,5.91-1.12,9.92,1.62,11.48,5.94,2.95,8.19-1.82,11.9-5.9,15.86-13.7,13.29,5.9,22.31,10.73,11.25a38.32,38.32,0,0,0,1.16-4.26c1.07-3.35,4-3.64,6.25-1,2.5,2.89,6.47,2.45,9.13.12,4.2-3.68,1-10-.77-14.08a17.05,17.05,0,0,1-1.75-8.18,8.27,8.27,0,0,1,5.05-6.64c5.48-2.48,13.09-11.53,13.09-11.53,1.32-1.19,3-1.93,6.23-1.83a11.79,11.79,0,0,1,10.61,7c2.25,4.79.83,8.28-1.62,11.82-3.89,5.62-6.76,8.78-6.94,14a18,18,0,0,0,3.12,10.71c2.16,3,6,5.13,8.58,3.22,1.81-1.37,2-3.93,2.8-6.16,1.87-5.33,8.46-5.7,11.23-.38,1.24,2.4,1.67,5.67,4.83,5.5,1.05-.06,2.2-1,3.45-3.53,2.25-4.48,3.07-12.11,10.94-12s7.34,6.93,10.67,7.22a4.76,4.76,0,0,0,2.84-.88c1.76-1.1,3.39-2.54,5.08-3.82,3.06-2.31,11-5.54,10.6,1.34-.17,3.27-10.6,13.4-1.81,18.26,3,1.64,6.44.19,9.57-1.37,3.34-1.66,6.3-3.46,7.87-1.77,2.38,2.55-.15,4.72-2.1,6.23a9.39,9.39,0,0,0-3.81,5.89,2,2,0,0,1-.7,1.24,39.22,39.22,0,0,0,14.48-30.39v-64Z"/><path class="cls-12" d="M783.94,652.77H93.89c-.48,25.07,11.51,33.9,27.37,33.31a36.8,36.8,0,0,0,15.31-4.29c4.86-2.46,8.07-5.84,11.3-8.39,13-10.26,16.33,3.34,25.42,3,9.63-.32,13.4-10,26.91-7.67,20.3,3.47,10.59,36.83,65.31,5.75,19.82-11.25,41-13.22,62.66-4.7,6.73,2.65,13.51,6,20.16,9.44,49.68,25.6,54.36,20.37,106.5-.93,24.14-9.85,49-21,66.52,2.55,9.51,12.77,15.49,18.43,27.46,18.17,30.89-.69,33.72-49.14,59.69-24.78,4.11,3.86,9.24,7,19.59,3.25,5.83-2.12,10.62-5.47,18-6.18,26.9-2.59,34.89,30.26,57.09,30.4,21.55.14,22.46-27.38,39.58-28.43,9.64-.6,17.81,8.22,29.26,8.25C784,681.59,793.19,673.27,783.94,652.77Z"/><path class="cls-2" d="M783.94,652.77c9.24,20.47.06,28.79-11.87,28.79H772c-11.08,0-19.08-8.28-28.32-8.28l-.94,0c-17.08,1.05-18,28.43-39.42,28.43h-.16c-21.36-.14-29.56-30.55-54.11-30.55-1,0-2,0-3,.15-7.37.71-12.16,4.06-18,6.18a24.83,24.83,0,0,1-8.41,1.69c-5.09,0-8.37-2.31-11.18-4.94-5.21-4.89-9.49-6.84-13.25-6.84-15,0-21.75,31.07-46.44,31.62H548c-11.44,0-17.36-5.69-26.66-18.18-7.7-10.34-16.82-14-26.68-14-12.56,0-26.31,5.92-39.84,11.44-27.76,11.35-42.07,18.13-56.87,18.13-13,0-26.4-5.23-49.63-17.2-6.65-3.43-13.43-6.79-20.16-9.44a72.81,72.81,0,0,0-26.74-5.27c-12.32,0-24.35,3.4-35.92,10-17.11,9.72-27.92,13.13-35.32,13.13-16.26,0-16-16.5-30-18.88a24.25,24.25,0,0,0-4-.35c-10.37,0-14.3,7.74-22.91,8H173c-6.4,0-10-6.88-16.28-6.88-2.43,0-5.27,1-8.84,3.84-3.23,2.55-6.44,5.93-11.3,8.39a36.75,36.75,0,0,1-15.31,4.29l-1.45,0c-15.14,0-26.39-9-25.92-33.34H783.94m6.46-10H84.08l-.19,9.81c-.29,14.88,3.34,26.26,10.77,33.84,6.22,6.34,14.91,9.69,25.15,9.69l1.82,0a46.33,46.33,0,0,0,19.45-5.37,52,52,0,0,0,10.71-7.55c.82-.71,1.59-1.37,2.28-1.92a10.86,10.86,0,0,1,2.57-1.62,26.52,26.52,0,0,1,2.46,1.58c3,2.09,7.55,5.24,13.89,5.24h.62c6.6-.21,11.23-2.94,14.95-5.14,3.29-1.94,5-2.87,7.64-2.87a14.06,14.06,0,0,1,2.32.21c2.56.43,4,2,7.27,5.85,4.36,5.25,11,13.17,24.4,13.17,10.12,0,22.91-4.58,40.26-14.43,10.13-5.76,20.55-8.67,31-8.67a62.93,62.93,0,0,1,23.07,4.58,210.9,210.9,0,0,1,19.25,9C366.8,700,382.26,706.46,398,706.46c14.93,0,28.46-5.59,50.87-14.84l9.79-4,2.13-.87c11.79-4.83,24-9.83,33.92-9.83,7.78,0,13.53,3.08,18.66,10,9.37,12.58,17.87,22.21,34.68,22.21l1,0c18.38-.4,29-13.13,36.67-22.41,2.86-3.44,7.64-9.2,9.55-9.2.74,0,2.93.87,6.41,4.13s9.18,7.65,18,7.65a34.42,34.42,0,0,0,11.82-2.29c2.17-.79,4.09-1.66,5.94-2.5,3.44-1.56,6.16-2.8,9.6-3.13a19.79,19.79,0,0,1,2-.1c8.64,0,14.88,6.12,22.1,13.2,8.25,8.09,17.61,17.26,31.94,17.35h.23c16.55,0,24.6-11.22,30.47-19.41,4.41-6.15,6.65-8.86,9.57-9h.32c2.24,0,5.24,1.37,8.72,3,5.18,2.37,11.63,5.31,19.58,5.33h.08c9.54,0,17.52-3.9,21.92-10.71,3.65-5.65,6.45-15.82-.93-32.19l-2.66-5.89Z"/><path class="cls-13" d="M762.18,467.77H119.67c-4.92.07-5.76,3.37-4.34,7q11.81,31.45,23.59,62.9c3.54,9.43,8.76,15.52,14.51,23.77,3.37,4.3,5.41,1.83,8.29-.82,23.93-22,48.23-45,72.33-67.53,11.09-10.1,23.87-12.88,35.65-16h158l155,57.89,54.12,31.15c4.9,2.78,7.56,1.77,9.08-.9l46.39-88.06h69.91a4.7,4.7,0,0,0,4.7-4.7h0A4.71,4.71,0,0,0,762.18,467.77Z"/><path class="cls-2" d="M762.18,467.77a4.7,4.7,0,1,1,0,9.4H692.27l-46.39,88.06a4.48,4.48,0,0,1-4,2.55,10.63,10.63,0,0,1-5-1.65L582.68,535l-155-57.89h-158c-11.78,3.15-24.56,5.93-35.65,16-24.1,22.52-48.4,45.49-72.32,67.53-1.75,1.61-3.19,3.15-4.81,3.15-1,0-2.16-.64-3.49-2.33-5.75-8.25-11-14.34-14.51-23.77q-11.79-31.46-23.59-62.9c-1.42-3.66-.58-7,4.34-7H762.18m0-10H119.53c-7.28.1-10.94,3.93-12.48,6.2-2.71,4-3.09,9.12-1.07,14.39l23.58,62.85c3.3,8.81,7.72,14.92,12.39,21.39,1.07,1.48,2.18,3,3.28,4.59l.16.23.17.22c4,5.09,8.38,6.16,11.36,6.16,5.38,0,8.93-3.32,11-5.3l.54-.5c16.48-15.18,33.39-31,49.75-46.38q11.31-10.61,22.58-21.15c8.43-7.66,18.3-10.25,28.74-13l1.43-.38H425.85l152.55,57,53.41,30.74h0l0,0a20,20,0,0,0,10,2.95,14.41,14.41,0,0,0,12.75-7.62l.07-.13.07-.14,27.4-52,16.18-30.72h63.88a14.7,14.7,0,1,0,0-29.4Z"/><path class="cls-14" d="M820.6,321.45a5,5,0,0,1,4.93-3.13c3.15.31,5.4,3.59,3.8,8-3.73,10.12.6,17.58,11.65,13.79,2.32-.8,5.27-2.5,8.2-3.53,9.26-3.26,14.4,4.32,6.13,11.95-4.47,4.12-10.41,9.32-6.26,16,2.36,3.77,7.54,5.9,11.59,5.47,3.41-.36,7.12-2.13,10.5-2.36,5.37-.16,7.76,5.29,2.54,9.38-2.71,2.12-6.27,4.54-6.09,8.14.17,3.17,3,5.62,4.67,8.63a4.87,4.87,0,0,1-2.7,7.32c-2.45.85-6.29-.4-10.49-1.84-21.64-7.4-26.53,6.22-16.4,14.11,2.56,2,5.87,4.84,2.75,8.18-2.06,2.2-5.94-.14-10.31-2.32-4.1-2.05-8.65-3.95-12.55-1.8-11.52,6.38,2.16,19.65,2.37,23.94.47,9-9.88,4.77-13.88,1.75-2.22-1.67-4.36-3.57-6.66-5a6.18,6.18,0,0,0-3.72-1.15c-4.37.38-3.69,9.26-14,9.46s-11.39-9.8-14.34-15.67c-1.64-3.28-3.15-4.55-4.52-4.63-4.14-.22-4.7,4.06-6.34,7.21-3.62,7-12.26,6.48-14.72-.51-1-2.91-1.28-6.28-3.66-8.06-3.33-2.5-8.41.32-11.24,4.21a23.58,23.58,0,0,0-4.09,14c.23,6.78,4,10.92,9.09,18.28,3.22,4.65,5.07,9.22,2.13,15.5a15.46,15.46,0,0,1-13.92,9.17c-9.39.29-8.7-4.78-15.21-9.78a48.18,48.18,0,0,0-7-4.32c-9.7-5-12.16-12-7.43-22.83,2.33-5.33,6.53-13.63,1-18.46-3.49-3.05-8.69-3.62-12,.17-3,3.47-6.79,3.09-8.2-1.3-.53-1.67-.68-3.67-1.52-5.59-6.32-14.49-32-2.67-14.06,14.75,5.35,5.19,11.6,10,7.73,20.78-2,5.66-7.29,9.26-15,7.79-5.39-1-8.2-5.87-12.22-9.22-2.87-2.39-6-3.18-12.55,1.65-12.07,8.93-18.83-2-24-12.75-2.75-5.7-7.07-19.2-14.68-13.72-9.42,6.78-18.4,1.05-12.22-9.46s-11.42-21.05-20.52-10.19a41.39,41.39,0,0,0-5.54,9.84c-2.91,6.65-8.57,10.35-15.84,10.66-11.74.49-22.91-12.07-35.2-16.74-14.51-5.5-28.66,1.52-35.42,15.24-6.18,12.54-25.79,6-16.37-9.6,3.51-5.82,7.8-9,8.54-14.28,2.66-19.07-20.23-25.15-34.78-21.3C405.74,391.7,412.8,410.29,395,409c-10.27-.73-12.24-7.09-13.43-15.82-.66-4.83-1.3-9.68-4.21-12-5.69-4.67-11.63,1.71-16.33,3.7-14.42,6.08-22.12-10.69-33.11-6.79-7.17,2.55-6.58,16.4-16.67,16.16-3-.07-6.1-.7-8.68.09a14.44,14.44,0,0,0-9,7.72c-2.08,4-1,8.23-.17,17.59A9.1,9.1,0,0,1,292,426c-5.56,7.87-15.36-.58-23.29,8.05-2.8,3.05-5.47,9.32-15.31,1.38-8.42-6.81-18-18.72-24-15.66-4.34,2.2-2.86,6.75-8,8.8-4.82,1.9-12-1.93-16.27-2.93-4.1-.95-8.66-1-13.17,2.08-8.78,5.94,1.18,19.9-18,27.65-9,3.64-20.09,2.27-25.33-3a5.32,5.32,0,0,0-4.19-1.6c-4.47.34-7.15-1-8.87-3.08-3.07-3.78-3.18-9.21-4.92-13.62-4.95-12.54-25.66-7.78-32.83,1-9.1,11.1-2.88,31.33-14.68,32.86a4.35,4.35,0,0,1-1,0C77.53,467.49,76,464,76.39,461c.36-2.47,2.15-4.61,2.35-6.73.38-4.19-7.34-8.83-11.74-2.59-3.28,4.66-2.13,15-2.11,20.57,0,9.62-1.88,19.56-13.42,20.46-7.42.58-14.81-3.08-13.26-11.59.93-5.08,3.82-8.82,4.29-12.78.28-2.44-.91-5.62-2.81-7.89-2.15-2.58-4-3.18-5.83-2.85-2.9.55-5.07,4.38-8.9,5.57-8.3,2.6-13.56-5.08-9.33-13.8,1.87-3.86,5.66-7.06,9.39-9.73,17.75-12.75,19.41-29.23-6.12-28-8.51.4-14.08-4-13.9-9.18.56-15.13,17.15-5.19,21.11-13.67,10.9-23.31,20.28,6.68,32.66-1.38,2.43-1.58,3.64-4.53,1.82-6.95-4.59-6.11,1.28-13.44,7.89-7.9,4.43,3.7,12.67,5.48,13.55-8.27a5.13,5.13,0,0,1,5.11-4.81h699.8a5.14,5.14,0,0,0,3.77-1.65l26.22-28.4a5.21,5.21,0,0,0,1-1.49Z"/><path class="cls-2" d="M50,497.77c-5.52,0-10.5-1.92-13.55-5.31-2-2.25-4.23-6.2-3.13-12.23A35.13,35.13,0,0,1,36,472.29a18.11,18.11,0,0,0,1.58-4.53,6.78,6.78,0,0,0-1.68-4.11,5.48,5.48,0,0,0-1.11-1.07,17.39,17.39,0,0,0-1.67,1.31A18.82,18.82,0,0,1,26.45,468c-5.48,1.71-10.76.4-14.12-3.5-3.78-4.38-4.24-11-1.2-17.26,2.46-5.08,7.16-8.88,11-11.61,8.48-6.09,12-12.46,11-15.35-.68-2-4.74-4.06-13.94-3.64-6.2.31-11.76-1.55-15.31-5.06A12.38,12.38,0,0,1,0,402.24c.48-13.2,10.63-13.92,16.07-14.31,3-.21,5.1-.43,5.5-1.29,3.18-6.8,6.7-10.48,11.1-11.61,5.72-1.47,10.61,2.1,14.53,5,5.26,3.84,6.91,4.43,8.84,3.18a2.67,2.67,0,0,0,.23-.18c-3.4-4.91-3.07-11.05.88-14.79,3.26-3.09,9-4.15,14.53.47,1.55,1.3,3.09,1.63,3.51,1.44s1.55-1.65,1.84-6.19a10.15,10.15,0,0,1,10.1-9.49h699.8L813.26,326l2.74-6.48a10,10,0,0,1,10-6.16,9.61,9.61,0,0,1,7.27,4.48A11.51,11.51,0,0,1,834,328c-1.54,4.17-1,6.79-.29,7.53s2.41.91,5.63-.19a33.56,33.56,0,0,0,3.2-1.4c1.5-.7,3.2-1.5,5-2.12,6.6-2.32,12.7-.77,15.54,4,2.31,3.84,2.38,10.16-4.36,16.39l-.35.32c-5.48,5.05-6.52,7-5.06,9.31a8,8,0,0,0,6.82,3.15,25.68,25.68,0,0,0,4.14-1,31.43,31.43,0,0,1,6.56-1.39H871c4.65-.17,8.62,2.32,10.06,6.28,1.51,4.16-.14,8.77-4.29,12l-.7.55c-.87.67-3.51,2.71-3.48,3.4s1,2,1.82,3.09a31.15,31.15,0,0,1,2.24,3.39,10.31,10.31,0,0,1,.73,8.66,9.92,9.92,0,0,1-6.18,5.8c-4.18,1.44-9-.23-13.74-1.84-9.07-3.1-13.8-1.75-14.66-.17-.62,1.15.32,3.55,3,5.61,1.94,1.52,5.57,4.34,5.91,8.71a8.77,8.77,0,0,1-2.58,6.82c-4.42,4.73-10.47,1.65-14.89-.6l-1.31-.66c-3.09-1.54-6.19-2.84-7.9-1.89s-1.87,1.68-1.94,1.94c-.63,2.3,2,6.78,3.72,9.74s3,5.21,3.17,7.62c.31,6-2.8,8.59-4.68,9.59-5.79,3.07-13.79-1-17.22-3.59-.77-.58-1.53-1.19-2.3-1.8a44.17,44.17,0,0,0-4-3l-.14-.09c-.17.24-.34.51-.48.73-1.89,2.89-5.39,8.27-14.33,8.44h-.41c-11.36,0-14.89-9.27-17-14.83-.51-1.34-1-2.61-1.49-3.6-.15-.31-.3-.57-.43-.81-.13.3-.25.6-.35.85-.33.8-.71,1.71-1.17,2.61-2.65,5.09-7.56,8-12.79,7.64a12.71,12.71,0,0,1-11.08-8.8c-.32-.92-.57-1.8-.8-2.64a10.52,10.52,0,0,0-1.1-3h0c-.73,0-2.73,1-4.25,3.1a18.79,18.79,0,0,0-3.14,10.93c.14,4.09,1.94,6.77,6,12.45.7,1,1.45,2,2.23,3.16,3.37,4.87,6.71,11.59,2.55,20.46a20.59,20.59,0,0,1-18.29,12c-8.74.26-11.78-3.48-14.49-6.79a22.72,22.72,0,0,0-3.92-4,43.25,43.25,0,0,0-6.26-3.83c-12.17-6.31-15.44-16.16-9.72-29.28l.48-1.09c2.22-5,4-9.67,1.82-11.61A4.52,4.52,0,0,0,690,433a2.44,2.44,0,0,0-1.74.92c-2.75,3.17-6.28,4.59-9.69,3.89s-5.85-3.2-7-6.93a23.65,23.65,0,0,1-.64-2.58,13.61,13.61,0,0,0-.7-2.54,5.36,5.36,0,0,0-5.27-3.51c-2.33,0-4.52,1.34-5.21,3.09-1,2.4.68,5.89,4.49,9.58L665.3,436c5.29,5,12.52,11.95,7.83,25-3.06,8.49-11.17,12.8-20.68,11-5.35-1-8.78-4.57-11.53-7.42a39.27,39.27,0,0,0-3-2.87c-1-.86-1.84-1.53-6.38,1.83-5,3.72-10,5-14.71,3.85-7.83-1.93-12.68-10-16.76-18.45-.4-.83-.84-1.82-1.31-2.89-.92-2.1-3.67-8.38-5.43-9.25a2.38,2.38,0,0,0-.52.31c-6.63,4.77-14.16,5.17-18.74,1-3.38-3.08-5.34-9.18-.7-17.05,1.59-2.71-.44-4.71-1.79-5.67-2.08-1.47-7-3.1-10.59,1.23a38.22,38.22,0,0,0-4.8,8.63c-3.62,8.29-11,13.26-20.21,13.65-8.74.37-16.57-4.74-24.12-9.69-4.31-2.82-8.76-5.73-13.06-7.36-11.53-4.37-23.24.76-29.16,12.77A16.18,16.18,0,0,1,455.75,444a13.91,13.91,0,0,1-12.64-6.57c-1.65-2.81-3.66-8.77,1.43-17.2a59.27,59.27,0,0,1,4.14-5.85c2.19-2.83,3.45-4.53,3.73-6.54.65-4.69-.62-8.39-3.89-11.29-5.45-4.83-16-6.75-24.66-4.48-5.75,1.53-7.53,5.07-9.79,9.57-2.82,5.6-6.69,13.3-19.45,12.38-15.44-1.09-17.13-13.48-18-20.14-.45-3.3-1.06-7.73-2.42-8.85-1.16-.95-2.25-.8-6.81,2a32.19,32.19,0,0,1-4.42,2.42c-10.13,4.28-17.91-.29-23.6-3.62-4.43-2.59-7.08-4-9.77-3-1.23.43-2.47,2.82-3.66,5.14-2.33,4.51-5.84,11.3-14.41,11.3h-.4c-1,0-1.93-.09-2.84-.16a14.11,14.11,0,0,0-4.26,0,9.52,9.52,0,0,0-6,5.26c-.93,1.78-.73,4.14-.13,9.78.16,1.5.34,3.17.51,5a14,14,0,0,1-2.33,9.74c-4.22,6-10.22,5.91-14.61,5.86-4.17-.06-6.65.05-9.07,2.69-.29.31-.58.67-.87,1-1.59,2-4.24,5.27-8.84,5.76-3.78.4-7.83-1.2-12.43-4.92-2.31-1.85-4.65-4-6.92-6.15-3.35-3.12-9.54-8.89-11.77-8.89h0c-.41.23-.6.53-1.24,1.84a12.66,12.66,0,0,1-7.14,7.11c-5.25,2.06-11,0-15.71-1.59-1.35-.47-2.62-.91-3.53-1.12-3.73-.86-6.57-.45-9.23,1.35-1.53,1-1.89,2.63-2.46,6.59-.91,6.3-2.28,15.82-16.49,21.56-10.85,4.38-24.07,2.6-30.75-4.13a.53.53,0,0,0-.26-.13c-5.71.44-10.11-1.22-13.12-4.92-2.69-3.3-3.63-7.17-4.46-10.58a32.65,32.65,0,0,0-1.24-4.35c-.35-.89-1.42-3.59-6-4.31-6.07-.95-14.62,2.13-18.28,6.6-3.18,3.87-4.06,9.71-4.91,15.36-1.21,8-2.71,18-13,19.29a9.49,9.49,0,0,1-2.13,0,10.83,10.83,0,0,1-10.13-12.61,16.79,16.79,0,0,1,1.66-4.91c.16-.36.39-.84.53-1.2a2.09,2.09,0,0,0-1.18-.54c-.21,0-.68,0-1.36.92-1.7,2.41-1.45,9.62-1.3,13.93,0,1.38.09,2.65.1,3.75,0,15.95-6,24.52-18,25.46C51.23,497.75,50.6,497.77,50,497.77ZM34.72,452.52c2.53,0,5.71,1,8.81,4.73,2.87,3.44,4.37,7.91,3.93,11.68a25.5,25.5,0,0,1-2.34,7.35,26.08,26.08,0,0,0-2,5.74c-.4,2.2.21,3.19.71,3.74,1.3,1.44,4.14,2.22,7.24,2,4.28-.34,8.83-1.84,8.81-15.47,0-1,0-2.16-.09-3.42-.23-6.63-.52-14.88,3.12-20a11.37,11.37,0,0,1,13.45-4.44c4.65,1.72,7.74,6.08,7.35,10.37a14.58,14.58,0,0,1-1.57,4.89,9.63,9.63,0,0,0-.81,2.1,1.26,1.26,0,0,0,.13.88,1.61,1.61,0,0,0,1,.34c2.38-.34,3.14-2.9,4.34-10.85,1-6.66,2.15-14.21,7.06-20.21,5.89-7.18,18-11.63,27.57-10.14,6.62,1,11.51,4.77,13.78,10.52a41,41,0,0,1,1.66,5.66c.64,2.62,1.23,5.09,2.49,6.63.37.45,1.23,1.51,4.61,1.26a10.31,10.31,0,0,1,8.12,3.05c3.4,3.43,12.2,5,19.9,1.9,8.88-3.58,9.53-8.05,10.34-13.7.64-4.39,1.42-9.85,6.75-13.45,5-3.4,10.61-4.32,17.1-2.81a45.75,45.75,0,0,1,4.56,1.42c2.78,1,7,2.43,8.75,1.73.88-.35,1.05-.6,1.82-2.19a12.65,12.65,0,0,1,5.79-6.42c7.59-3.85,15.44,3.46,23,10.53,2.14,2,4.35,4.06,6.38,5.7,2.85,2.29,4.55,2.81,5.08,2.75s1.46-1.28,2.12-2.09c.44-.55.87-1.07,1.29-1.54,5.57-6.05,11.93-6,16.57-5.91,4.08,0,5.23-.11,6.31-1.63a4.13,4.13,0,0,0,.55-3c-.17-1.87-.34-3.48-.5-4.94-.7-6.59-1.17-10.94,1.2-15.47a19.42,19.42,0,0,1,11.93-10.19,21.22,21.22,0,0,1,7.94-.45c.82.07,1.59.13,2.32.14h.14c2.19,0,3.17-1.3,5.54-5.89,1.89-3.66,4.24-8.22,9.2-10,7.22-2.56,13.29,1,18.18,3.86,5.67,3.32,9.41,5.24,14.66,3a27,27,0,0,0,3.06-1.73c4.24-2.61,11.36-7,18.38-1.23,4.41,3.61,5.25,9.76,6,15.19,1.22,9,2.87,11.14,8.83,11.56,6.13.44,7.2-1.71,9.82-6.9s6.06-12.06,16.16-14.73c9.77-2.59,24.53-1.61,33.86,6.66,5.8,5.15,8.28,12.12,7.15,20.16-.66,4.74-3.24,8.06-5.72,11.27a51.19,51.19,0,0,0-3.49,4.9c-1.76,2.91-2.26,5.44-1.37,7a4,4,0,0,0,3.65,1.66,6.18,6.18,0,0,0,5.33-3.8c8.19-16.62,25.33-23.9,41.67-17.7,5.32,2,10.24,5.23,15,8.34,6.52,4.27,12.66,8.27,18.23,8.07s9.35-2.81,11.47-7.67a46.22,46.22,0,0,1,6.29-11c6.89-8.23,17.31-7.72,24-3,6.56,4.63,8.46,12.41,4.63,18.91-1.63,2.78-1.43,4.36-1.17,4.59.43.39,2.77.72,6.15-1.72a10.21,10.21,0,0,1,8.9-1.88c6.26,1.71,9.61,9.34,12.06,14.92.41.95.8,1.83,1.15,2.56,1.74,3.6,5.81,12,10.16,13.09,1.7.42,3.84-.31,6.36-2.18,9.73-7.2,15.35-4.29,18.73-1.47a48.22,48.22,0,0,1,3.76,3.61c2.46,2.55,4.08,4.13,6.2,4.54,4.75.9,8-.68,9.4-4.57,2.38-6.61-.05-9.33-5.32-14.36l-1.19-1.14c-9.37-9.09-8.3-16.71-6.82-20.44,2.18-5.51,7.94-9.29,14.33-9.41a15.3,15.3,0,0,1,14.62,9.51,22.78,22.78,0,0,1,1.31,4.46c.07.34.14.67.21,1a12.45,12.45,0,0,1,8.45-4.15,14.46,14.46,0,0,1,10.42,3.69c7.93,6.95,3.25,17.51.73,23.18l-.45,1c-3.61,8.26-2.26,12.56,5.15,16.4a52.59,52.59,0,0,1,7.75,4.78,32.32,32.32,0,0,1,5.58,5.64c2.13,2.61,2.64,3.23,6.43,3.12a10.51,10.51,0,0,0,9.54-6.31c1.71-3.63,1.29-6.18-1.71-10.52C732,463,731.28,462,730.59,461c-4.23-5.95-7.57-10.64-7.82-17.91a28.42,28.42,0,0,1,5-17.14c2.81-3.86,6.82-6.52,10.74-7.1a9.84,9.84,0,0,1,7.55,1.82c3.14,2.35,4.1,5.87,4.8,8.44.19.71.38,1.38.58,2a2.8,2.8,0,0,0,2.35,2.14c1.25.09,2.43-.77,3.22-2.29.26-.5.52-1.13.79-1.79,1.13-2.75,3.52-8.47,10.26-8.1,5.15.29,7.83,5.62,8.71,7.37.72,1.45,1.32,3,1.9,4.53,2.34,6.16,3.59,8.45,7.88,8.39,3.64-.07,4.58-1.51,6.14-3.9,1.35-2.06,3.38-5.18,7.51-5.54a11,11,0,0,1,6.76,1.86,53.21,53.21,0,0,1,5,3.65c.69.55,1.38,1.11,2.09,1.64a15.29,15.29,0,0,0,5.83,2.63c-.31-.74-1.14-2.15-1.76-3.22-2.74-4.67-6.48-11.08-4.73-17.44a13.09,13.09,0,0,1,6.74-8c6.05-3.35,12.43-.65,16.3,1.24-4-4.71-5-10.47-2.44-15.23,1.46-2.71,7.71-11,26.69-4.54,2,.67,6,2.07,7.27,1.83a1.22,1.22,0,0,0-.08-.17,23.3,23.3,0,0,0-1.57-2.33c-1.57-2.16-3.52-4.85-3.71-8.45-.31-5.92,4.3-9.48,7.34-11.83l.65-.51a4.17,4.17,0,0,0,.47-.41,28.38,28.38,0,0,0-4,1,33.25,33.25,0,0,1-5.87,1.33,17.89,17.89,0,0,1-16.37-7.79c-6.24-10,2.22-17.78,6.77-22l.34-.31c2.14-2,2.54-3.44,2.55-3.87-.34-.16-1.52-.44-3.63.3-1.28.46-2.68,1.11-4,1.75a43.23,43.23,0,0,1-4.21,1.8c-9,3.08-13.9-.11-16-2.28-3.74-3.83-4.58-9.9-2.35-16.8l-1.73,4.11a10.08,10.08,0,0,1-1.89,2.93l-26.23,28.42a10.14,10.14,0,0,1-7.44,3.25H87.14a.14.14,0,0,0-.12.13c-.62,9.66-4.63,13.35-7.88,14.75-5,2.15-10.47-.12-13.87-3a3.82,3.82,0,0,0-1.28-.77,2.29,2.29,0,0,0,.6,1.83,9.19,9.19,0,0,1,1.74,7.14,10.71,10.71,0,0,1-4.83,7c-8.15,5.31-15.39,0-20.19-3.48-2.11-1.55-5-3.65-6.15-3.36-.19,0-1.94.63-4.52,6.15-2.93,6.26-9.5,6.72-13.85,7-6.08.44-6.65.83-6.79,4.7a2.46,2.46,0,0,0,.87,1.82c1.54,1.53,4.46,2.34,7.8,2.19,17.35-.82,22.39,6.13,23.85,10.33,2.8,8-2.79,18.29-14.59,26.76-2.63,1.89-6.3,4.76-7.8,7.85-1.42,2.94-1.14,5.32-.23,6.38s2.43.83,3.57.47a10.67,10.67,0,0,0,3.13-2.13c1.69-1.44,3.61-3.07,6.34-3.58A9.78,9.78,0,0,1,34.72,452.52Z"/><rect class="cls-15" x="78.11" y="295.3" width="400.5" height="58.45" rx="29.04"/><path class="cls-2" d="M449.58,295.3a29,29,0,0,1,29,29v.38a29,29,0,0,1-29,29H107.15a29,29,0,0,1-29-29v-.38a29,29,0,0,1,29-29H449.58m0-10H107.15a39.08,39.08,0,0,0-39,39v.38a39.08,39.08,0,0,0,39,39H449.58a39.08,39.08,0,0,0,39-39v-.38a39.08,39.08,0,0,0-39-39Z"/><g class="cls-5"><rect class="cls-6" x="139.21" y="295.3" width="72.73" height="58.45"/></g><g class="cls-5"><rect class="cls-6" x="224.73" y="295.3" width="13.02" height="58.45"/></g><rect class="cls-15" x="402.97" y="295.3" width="400.5" height="58.45" rx="29.04"/><path class="cls-2" d="M774.44,295.3a29,29,0,0,1,29,29v.38a29,29,0,0,1-29,29H432a29,29,0,0,1-29-29v-.38a29,29,0,0,1,29-29H774.44m0-10H432a39.09,39.09,0,0,0-39,39v.38a39.08,39.08,0,0,0,39,39H774.44a39.08,39.08,0,0,0,39-39v-.38a39.08,39.08,0,0,0-39-39Z"/><g class="cls-5"><rect class="cls-6" x="652.2" y="295.3" width="51.1" height="58.45"/></g><g class="cls-16"><rect x="714.49" y="295.3" width="17.43" height="58.45"/></g><path class="cls-17" d="M96.65,296.3H786.7c.48,25.07-11.51,33.9-27.37,33.31A36.75,36.75,0,0,1,744,325.32c-4.86-2.46-8.07-5.84-11.3-8.4-13-10.25-16.33,3.35-25.42,3.05-9.63-.32-13.41-10-26.91-7.67-20.3,3.46-10.59,36.82-65.31,5.75-19.82-11.26-41-13.22-62.66-4.7-6.73,2.65-13.51,6-20.16,9.44-49.69,25.59-54.36,20.37-106.5-.93-24.14-9.85-49-21-66.52,2.55-9.51,12.77-15.49,18.43-27.46,18.17-30.89-.69-33.72-49.14-59.69-24.78-4.12,3.86-9.24,7-19.59,3.25-5.83-2.12-10.62-5.47-18-6.18-26.9-2.6-34.89,26.85-57.09,27-21.54.14-22.46-24-39.59-25-9.63-.59-17.8,8.23-29.25,8.26C96.62,325.12,87.4,316.8,96.65,296.3Z"/><path class="cls-2" d="M786.7,296.3c.47,24.3-10.78,33.34-25.92,33.34l-1.45,0A36.75,36.75,0,0,1,744,325.32c-4.86-2.46-8.07-5.84-11.31-8.4-3.56-2.81-6.4-3.83-8.83-3.83-6.32,0-9.88,6.88-16.29,6.88h-.29c-8.61-.28-12.54-8-22.91-8a23.19,23.19,0,0,0-4,.36c-13.95,2.38-13.73,18.88-30,18.88-7.4,0-18.21-3.41-35.32-13.13-11.57-6.57-23.6-10-35.92-10a72.81,72.81,0,0,0-26.74,5.27c-6.73,2.65-13.51,6-20.16,9.44-23.23,12-36.62,17.2-49.63,17.2-14.81,0-29.11-6.79-56.88-18.13-13.52-5.52-27.27-11.44-39.83-11.44-9.86,0-19,3.65-26.68,14-9.3,12.49-15.22,18.18-26.66,18.18h-.8C307.09,342,300.32,311,285.34,311c-3.76,0-8,2-13.25,6.85-2.81,2.63-6.09,4.94-11.18,4.94a24.83,24.83,0,0,1-8.41-1.69c-5.83-2.12-10.62-5.47-18-6.18-1.13-.11-2.23-.17-3.3-.17-24.3,0-32.52,27-53.79,27.16h-.18c-21.37,0-22.33-24-39.41-25-.31,0-.62,0-.93,0-9.24,0-17.24,8.25-28.32,8.28h-.06c-11.93,0-21.11-8.33-11.87-28.79H786.7m9.81-10H90.19l-2.66,5.89c-7.38,16.36-4.58,26.54-.93,32.19,4.4,6.81,12.38,10.71,21.92,10.71h0c8,0,14.43-3,19.61-5.33,3.48-1.58,6.48-2.95,8.72-2.95h.32c3.26.2,5.42,2.46,9.93,8,5.87,7.2,13.92,17.06,30.09,17.06h.24c14-.09,23.27-8.22,31.47-15.39s13.87-11.77,22.26-11.77a23.37,23.37,0,0,1,2.34.12c3.43.33,6.16,1.57,9.6,3.13,1.85.84,3.77,1.71,5.94,2.5a34.42,34.42,0,0,0,11.82,2.29c8.84,0,14.52-4.36,18-7.65s5.67-4.14,6.41-4.14c1.9,0,6.69,5.76,9.55,9.21,7.72,9.28,18.29,22,36.67,22.41l1,0c16.81,0,25.31-9.63,34.68-22.21,5.13-6.89,10.88-10,18.66-10,9.93,0,22.13,5,33.92,9.83l2.13.87,9.79,4C454.17,344.4,467.69,350,482.63,350c15.69,0,31.16-6.44,54.21-18.31a212,212,0,0,1,19.24-9,63,63,0,0,1,23.08-4.58c10.43,0,20.85,2.91,31,8.66,17.35,9.85,30.14,14.44,40.26,14.44,13.44,0,20-7.92,24.4-13.17,3.25-3.9,4.71-5.42,7.27-5.85a14.14,14.14,0,0,1,2.32-.22c2.65,0,4.35.94,7.64,2.88,3.72,2.2,8.35,4.93,14.94,5.14h.62c6.35,0,10.89-3.15,13.9-5.24a26.52,26.52,0,0,1,2.46-1.58,10.34,10.34,0,0,1,2.56,1.62c.7.55,1.47,1.21,2.29,1.91a51.47,51.47,0,0,0,10.7,7.56A46.39,46.39,0,0,0,759,339.6c.61,0,1.22,0,1.82,0,10.24,0,18.93-3.35,25.15-9.69,7.43-7.58,11.06-19,10.77-33.84l-.19-9.81Z"/><rect class="cls-18" x="126.8" y="304.5" width="6.94" height="4.69" transform="translate(-182.32 191.03) rotate(-46.67)"/><rect class="cls-18" x="161.78" y="311.21" width="6.94" height="4.69" transform="translate(-188.69 332.31) rotate(-65.24)"/><rect class="cls-18" x="196.63" y="308.75" width="6.94" height="4.69" transform="translate(-163.65 378.25) rotate(-67.71)"/><rect class="cls-18" x="256.32" y="305.82" width="6.94" height="4.69" transform="translate(-128.83 415.08) rotate(-65.25)"/><rect class="cls-18" x="320.98" y="310.47" width="6.94" height="4.69" transform="translate(-8.49 616.59) rotate(-86.33)"/><rect class="cls-18" x="328.67" y="327.8" width="6.94" height="4.69" transform="translate(-100.5 509.43) rotate(-67.34)"/><rect class="cls-18" x="348.65" y="307.37" width="4.69" height="6.94" transform="translate(-80.84 493.42) rotate(-64.45)"/><rect class="cls-18" x="446.4" y="312.43" width="6.94" height="4.69" transform="translate(106.94 743.58) rotate(-86.33)"/><rect class="cls-18" x="464.78" y="310.82" width="4.69" height="6.94" transform="translate(-91.18 241.61) rotate(-26.52)"/><rect class="cls-18" x="492.35" y="324.29" width="6.94" height="4.69" transform="translate(-17.88 624.37) rotate(-63.47)"/><rect class="cls-18" x="510.26" y="307.53" width="6.94" height="4.69" transform="translate(-3.71 6.23) rotate(-0.69)"/><rect class="cls-18" x="640.66" y="309.57" width="6.94" height="4.69" transform="translate(291.63 934.77) rotate(-86.33)"/><rect class="cls-18" x="744.83" y="310.72" width="6.94" height="4.69" transform="translate(387.98 1039.79) rotate(-86.33)"/><rect class="cls-18" x="759.85" y="308.29" width="4.69" height="6.94" transform="translate(-54.79 415.04) rotate(-29.45)"/><path class="cls-19" d="M786.47,285.3c-37.88-155.62-178.83-272-345.68-272h0C274,13.25,133,129.68,95.12,285.3Z"/><path class="cls-2" d="M440.79,13.25c166.85,0,307.8,116.43,345.68,272.05H95.12C133,129.68,274,13.25,440.79,13.25m0-10A363.67,363.67,0,0,0,213.35,83.1a369.49,369.49,0,0,0-80.11,88.62A363.39,363.39,0,0,0,85.4,282.93l-3,12.37H799.2l-3-12.37a363.63,363.63,0,0,0-47.84-111.21A369.32,369.32,0,0,0,668.23,83.1,363.61,363.61,0,0,0,440.79,3.25Z"/><path class="cls-20" d="M721.65,151.35c-65.21-83.89-167-138.1-280.86-138.1-134,0-251.21,75.05-311.84,185.17a6.31,6.31,0,0,0,4.75.2c2.74-.86,4.3-3.6,6.37-4,1.28-.24,2.64.19,4.18,2a8.19,8.19,0,0,1,2,5.65c-.33,2.83-2.4,5.51-3.06,9.14-1.11,6.1,4.17,8.71,9.49,8.3,8.25-.65,9.61-7.76,9.6-14.65,0-4-.84-11.38,1.51-14.72,3.15-4.46,8.68-1.15,8.4,1.86-.14,1.52-1.43,3-1.68,4.81-.33,2.26.9,4.83,4.41,5,8.93-.72,4.27-15.49,10.87-23.55,5.13-6.26,20-9.66,23.5-.68,1.24,3.15,2,6.62,3.52,9.74,1.08,2.16,7.52,4.56,11.42,1.2,3,4.91,8.87,7.2,16.05,4.3,15.33-6.19-.14-25.31,15.05-26.31,7.26-.48,11.69,9,18.91,7.13,3.86-1,2.65-4.72,5.76-6.3,4.31-2.18,11.16,6.34,17.18,11.21,7,5.68,12.24,1.63,9.19-4-3.58-6.57,1.1-11.78,4.72-7.92,6.2,6.61,11.79,6.09,10.81-3.36-.6-6.7,2.57-5.81,4.05-8.65a10.33,10.33,0,0,1,6.41-5.53c1.85-.56,4.06-.11,6.21-.06,7.22.17,6.8-9.74,11.94-11.57,7.86-2.79,13.37,9.21,23.69,4.86,3.36-1.42,7.61-6,11.69-2.65,2.08,1.7,2.54,5.17,3,8.62.85,6.25,2.26,10.81,9.61,11.33,12.76.9,7.71-12.4,19.76-15.6,10.41-2.75,26.8,1.6,24.89,15.24-.53,3.79-3.6,6.06-6.11,10.23-6.74,11.16,7.3,15.84,11.72,6.87,4.84-9.82,15-14.84,25.35-10.91,8.8,3.34,16.78,12.33,25.19,12a12.35,12.35,0,0,0,11.34-7.63,29.32,29.32,0,0,1,4-7c6.51-7.77,19.12-.23,14.69,7.29s2,11.63,8.74,6.77c5.44-3.92,8.54,5.75,10.51,9.82,3.7,7.67,8.54,15.52,17.17,9.13,4.68-3.46,6.93-2.9,9-1.18,2.87,2.39,4.89,5.86,8.75,6.6,5.54,1.05,9.3-1.53,10.76-5.58,2.76-7.68-1.71-11.16-5.54-14.87-12.84-12.47,5.54-20.93,10.07-10.56a35.1,35.1,0,0,1,1.08,4c1,3.14,3.72,3.41,5.87.93,2.35-2.71,6.07-2.3,8.57-.12,3.94,3.46.94,9.4-.73,13.21-3.39,7.77-1.62,12.75,5.32,16.34a35,35,0,0,1,5,3.09c4.66,3.58,4.17,7.21,10.89,7a11,11,0,0,0,10-6.56c2.11-4.49.78-7.76-1.53-11.09-3.65-5.27-6.34-8.23-6.5-13.09a16.8,16.8,0,0,1,2.93-10c2-2.79,5.66-4.81,8-3,1.7,1.28,1.89,3.69,2.63,5.77,1.75,5,7.94,5.35,10.53.36,1.17-2.25,1.57-5.31,4.54-5.15,1,.05,2,1,3.23,3.31,2.11,4.2,2.88,11.36,10.27,11.21s6.87-6.49,10-6.77a4.55,4.55,0,0,1,2.66.82c1.65,1,3.17,2.39,4.76,3.59,2.87,2.17,10.27,5.2,9.94-1.25-.16-3.07-9.94-12.57-1.7-17.13,2.79-1.54,6-.18,9,1.28,3.12,1.56,5.9,3.24,7.37,1.66,2.24-2.39-.14-4.42-2-5.85C713.39,158.62,714.12,151.92,721.65,151.35Z"/><rect class="cls-21" x="249.4" y="90.99" width="20.77" height="20.77" rx="4"/><rect class="cls-21" x="329.88" y="80.6" width="20.77" height="20.77" rx="4"/><rect class="cls-21" x="461.49" y="75.84" width="20.77" height="20.77" rx="4"/><rect class="cls-21" x="532.18" y="45.53" width="20.77" height="20.77" rx="4"/><rect class="cls-21" x="602.88" y="106.14" width="20.77" height="20.77" rx="3"/><rect class="cls-21" x="390.79" y="30.38" width="20.77" height="20.77" rx="4"/></svg>