<svg id="Layer_1" data-name="Layer 1" xmlns="http://www.w3.org/2000/svg" viewBox="0 0 5310.85 769.23"><defs><style>.cls-1,.cls-13{fill:#8fcb18;}.cls-2{fill:#2d0e02;}.cls-3{fill:#be0149;}.cls-4{opacity:0.2;}.cls-5{fill:#fff;}.cls-6{fill:#ab4c06;}.cls-7{fill:#7c1803;}.cls-8{fill:#749b15;}.cls-19,.cls-9{fill:#f6a135;}.cls-10,.cls-18{fill:#fec546;}.cls-11,.cls-14{fill:#fa1500;}.cls-11,.cls-12,.cls-13,.cls-16,.cls-18,.cls-19{fill-rule:evenodd;}.cls-12{fill:#ff0;}.cls-15{opacity:0.1;}.cls-16{fill:#f2faaa;}.cls-17{fill:#78b41c;}.cls-20{fill:#fafd96;}</style></defs><path class="cls-1" d="M1237.13,762.73H1091.55q-74.6,0-110.68-29.84T944.78,641V455.46q0-62,36.09-92.18t110.68-30.13h145.58q11.32,0,16.41,5.07t5.07,16.41v72.19q0,11.34-5.07,16.41t-16.41,5.07H1117.2q-18.5,0-27.44,7.46t-9,22.37v142q0,14.93,9,21.78t27.44,6.86h119.93q11.32,0,16.41,5.07t5.07,16.41v71q0,11.34-5.07,16.4T1237.13,762.73Z"/><path class="cls-2" d="M1237.13,769.22H1091.55c-51,0-89.68-10.53-114.82-31.32-25.51-21.08-38.45-53.68-38.45-96.89V455.46c0-43.2,12.93-75.89,38.43-97.17,25.16-21,63.79-31.64,114.84-31.64h145.58c9.29,0,16.36,2.34,21,7s7,11.71,7,21v72.19c0,9.31-2.35,16.37-7,21s-11.69,7-21,7H1117.2c-10.7,0-18.54,2-23.28,5.95-4.45,3.71-6.61,9.4-6.61,17.38v142c0,7.88,2.09,13.32,6.4,16.62,4.78,3.66,12.68,5.52,23.49,5.52h119.93c9.29,0,16.36,2.34,21,7s7,11.71,7,21v71c0,9.3-2.35,16.37-7,21S1246.44,769.22,1237.13,769.22ZM1091.55,339.65c-47.92,0-83.76,9.63-106.51,28.62-22.4,18.7-33.76,48-33.76,87.19V641c0,39.15,11.35,68.38,33.73,86.87,22.75,18.81,58.59,28.34,106.54,28.34h145.58c5.65,0,9.74-1.09,11.81-3.16s3.17-6.16,3.17-11.81v-71c0-5.65-1.1-9.74-3.18-11.82s-6.15-3.16-11.8-3.16H1117.2c-13.93,0-24.2-2.69-31.4-8.21-7.62-5.83-11.49-14.9-11.49-26.93v-142c0-11.91,3.8-21.12,11.29-27.36,7.14-6,17.77-9,31.6-9h119.93c5.65,0,9.74-1.1,11.81-3.17s3.17-6.16,3.17-11.81V354.63c0-5.65-1.1-9.74-3.18-11.82s-6.15-3.16-11.8-3.16Z"/><path class="cls-1" d="M1439.38,762.73H1347.5q-11.34,0-16.41-5.08t-5.07-16.4V354.63q0-11.33,5.07-16.41t16.41-5.07h198.68q66.81,0,92.18,27.74t25.36,71.9v27.44q0,25.06-7.46,42.66t-26,25.36q32.22,3.57,52.21,26.25t20,60.26V741.25q0,11.34-5.07,16.4T1681,762.73h-92.48q-11.34,0-16.41-5.08t-5.07-16.4V650q0-13.11-5.07-19.39t-17.6-6.26h-83.53V741.25q0,11.34-5.07,16.4T1439.38,762.73Zm21.48-322.19v76.37h44.75q15.51,0,20.88-8t5.37-20V468.58q0-11.93-5.37-20t-20.88-8.06Z"/><path class="cls-2" d="M1681,769.22h-92.48c-9.32,0-16.39-2.34-21-7s-7-11.67-7-21V650c0-7.07-1.25-12.37-3.63-15.3-2.06-2.56-6.29-3.85-12.54-3.85h-77V741.25c0,9.3-2.35,16.37-7,21s-11.7,7-21,7H1347.5c-9.32,0-16.39-2.34-21-7s-7-11.67-7-21V354.63c0-9.31,2.35-16.38,7-21s11.69-7,21-7h198.68c46.23,0,78.86,10,97,29.86,17.95,19.65,27.06,45.31,27.06,76.28v27.44c0,17.5-2.69,32.71-8,45.2a52.07,52.07,0,0,1-14.34,19.69,82.82,82.82,0,0,1,39.48,25.08c14.35,16.28,21.62,38,21.62,64.56V741.25c0,9.3-2.35,16.37-7,21S1690.33,769.22,1681,769.22ZM1454.36,617.81h90c10.37,0,18,2.91,22.65,8.67,4.39,5.43,6.52,13.11,6.52,23.48v91.29c0,5.66,1.09,9.74,3.16,11.8s6.16,3.17,11.82,3.17H1681c5.65,0,9.74-1.09,11.81-3.16s3.17-6.16,3.17-11.81V614.76c0-23.3-6.18-42.13-18.37-56-12.34-14-28.05-21.87-48-24.09l-24.92-2.77,23.12-9.69c10.8-4.52,18.15-11.69,22.48-21.9,4.61-10.87,7-24.37,7-40.12V432.79c0-27.62-8-50.34-23.66-67.51-15.55-17-45-25.63-87.38-25.63H1347.5c-5.65,0-9.74,1.09-11.81,3.17s-3.17,6.15-3.17,11.81V741.25c0,5.66,1.09,9.74,3.16,11.8s6.16,3.17,11.82,3.17h91.88c5.66,0,9.74-1.09,11.81-3.16s3.17-6.16,3.17-11.81Zm51.25-94.4h-51.25V434h51.25c12.6,0,21.44,3.69,26.29,10.95,4.29,6.43,6.46,14.37,6.46,23.59v20.29c0,9.22-2.17,17.16-6.46,23.59C1527.05,519.73,1518.21,523.41,1505.61,523.41Zm-38.25-13h38.25c8,0,13.19-1.73,15.47-5.16,2.84-4.26,4.28-9.77,4.28-16.38V468.58c0-6.61-1.44-12.12-4.28-16.38-2.28-3.42-7.49-5.16-15.47-5.16h-38.25Z"/><path class="cls-1" d="M1891,741.25q0,11.34-5.07,16.4t-16.41,5.08h-87.7q-11.34,0-16.41-5.08t-5.07-16.4V583.73q0-17.9,5.67-41.16t17.6-54.3l51.9-135.43q3.59-10.14,11-14.92t19.39-4.77h160.5q11.33,0,18.79,4.77t11,14.92l51.91,135.43q11.92,31,17.6,54.3t5.66,41.16V741.25q0,11.34-5.07,16.4t-16.4,5.08h-90.1q-11.94,0-17.6-5.08t-5.66-16.4V657.72H1891Zm34-282.81-28,90.69h93.67l-28-90.69c-1.6-3.58-3.28-6.16-5.08-7.75a9.11,9.11,0,0,0-6.26-2.39h-14.91a9.15,9.15,0,0,0-6.27,2.39A22.49,22.49,0,0,0,1925,458.44Z"/><path class="cls-2" d="M2110,769.22h-90.1c-9.57,0-17-2.26-21.93-6.73-5.2-4.62-7.83-11.78-7.83-21.24v-77h-92.61v77c0,9.3-2.35,16.37-7,21s-11.7,7-21,7h-87.7c-9.33,0-16.39-2.34-21-7s-7-11.67-7-21V583.73c0-12.41,2-26.78,5.85-42.7,3.83-15.73,9.84-34.27,17.85-55.09l51.87-135.35c2.87-8.08,7.46-14.19,13.64-18.14,6-3.85,13.71-5.8,22.89-5.8h160.5c8.77,0,16.27,2,22.29,5.79,6.19,4,10.77,10.07,13.64,18.15L2114.27,486c8,20.82,14,39.35,17.85,55.08,3.89,16,5.85,30.32,5.85,42.7V741.25c0,9.3-2.34,16.37-7,21S2119.3,769.22,2110,769.22Zm-225.47-118h118.61v90c0,5.6,1.17,9.48,3.49,11.55,2.5,2.25,7.09,3.42,13.27,3.42H2110c5.65,0,9.73-1.09,11.81-3.16s3.16-6.16,3.16-11.81V583.73c0-11.34-1.84-24.68-5.48-39.63-3.71-15.18-9.54-33.18-17.35-53.49l-52-135.61c-1.91-5.4-4.66-9.2-8.42-11.61s-9-3.74-15.28-3.74H1866c-6.65,0-12,1.26-15.89,3.75s-6.5,6.19-8.41,11.6l-.06.16-51.9,135.44c-7.82,20.32-13.66,38.31-17.36,53.5-3.64,14.92-5.48,28.25-5.48,39.63V741.25c0,5.66,1.09,9.74,3.16,11.8s6.16,3.17,11.82,3.17h87.7c5.66,0,9.74-1.09,11.81-3.16s3.17-6.16,3.17-11.81Zm115-95.59h-111.3l30.92-99.82c2-4.46,4.16-7.73,6.69-10a15.74,15.74,0,0,1,10.59-4h14.91a15.74,15.74,0,0,1,10.58,4c2.52,2.24,4.7,5.5,6.69,10l.28.72Zm-93.67-13h76l-25.31-81.88c-1.52-3.32-2.72-4.68-3.31-5.21a2.68,2.68,0,0,0-1.94-.74h-14.91a2.71,2.71,0,0,0-2,.75,15.87,15.87,0,0,0-3.29,5.19Z"/><path class="cls-1" d="M2318.81,762.73h-92.47q-11.34,0-16.41-5.08t-5.07-16.4V354.63q0-11.33,5.07-16.41t16.41-5.07h266.09q11.34,0,16.41,5.07t5.07,16.41v71q0,11.34-5.07,16.4t-16.41,5.08H2340.29v62.05h103.82q11.32,0,16.4,5.07t5.08,16.4v71.6q0,11.34-5.08,16.41t-16.4,5.07H2340.29V741.25q0,11.34-5.07,16.4T2318.81,762.73Z"/><path class="cls-2" d="M2318.81,769.22h-92.47c-9.32,0-16.39-2.34-21-7s-7-11.67-7-21V354.63c0-9.31,2.34-16.38,7-21s11.7-7,21-7h266.1c9.29,0,16.36,2.34,21,7s7,11.71,7,21v71c0,9.31-2.34,16.37-7,21s-11.7,7-21,7H2346.79v49.05h97.32c9.29,0,16.36,2.34,21,7s7,11.72,7,21v71.6c0,9.31-2.35,16.38-7,21s-11.69,7-21,7h-97.32v111c0,9.3-2.34,16.37-7,21S2328.12,769.22,2318.81,769.22Zm-92.47-429.57c-5.66,0-9.74,1.09-11.82,3.17s-3.16,6.15-3.16,11.81V741.25c0,5.66,1.09,9.74,3.16,11.8s6.16,3.17,11.82,3.17h92.47c5.66,0,9.74-1.09,11.82-3.16s3.16-6.16,3.16-11.81v-124h110.32c5.65,0,9.74-1.1,11.81-3.17s3.17-6.15,3.17-11.81v-71.6c0-5.65-1.1-9.73-3.18-11.81s-6.15-3.16-11.8-3.16H2333.79v-75h158.65c5.65,0,9.73-1.1,11.81-3.17s3.16-6.16,3.16-11.81v-71c0-5.65-1.09-9.74-3.17-11.82s-6.16-3.16-11.8-3.16Z"/><path class="cls-1" d="M2776.43,762.73h-96.66q-11.34,0-16.4-5.08t-5.07-16.4V448.3h-87.71q-11.34,0-16.41-5.07t-5.07-16.41V354.63q0-11.33,5.07-16.41t16.41-5.07h315q11.34,0,16.41,5.07t5.07,16.41v72.19q0,11.34-5.07,16.41t-16.41,5.07h-87.7v293q0,11.34-5.07,16.4T2776.43,762.73Z"/><path class="cls-2" d="M2776.43,769.22h-96.66c-9.32,0-16.38-2.34-21-7s-7-11.67-7-21V454.8h-81.21c-9.32,0-16.39-2.35-21-7s-7-11.68-7-21V354.63c0-9.31,2.35-16.38,7-21s11.69-7,21-7h315c9.3,0,16.37,2.34,21,7s7,11.71,7,21v72.19c0,9.31-2.34,16.37-7,21s-11.7,7-21,7h-81.2V741.25c0,9.3-2.35,16.37-7,21S2785.74,769.22,2776.43,769.22ZM2570.59,339.65c-5.65,0-9.74,1.09-11.81,3.17s-3.17,6.15-3.17,11.81v72.19c0,5.66,1.1,9.74,3.16,11.81s6.16,3.17,11.82,3.17h94.21V741.25c0,5.66,1.09,9.74,3.16,11.8s6.15,3.17,11.81,3.17h96.66c5.65,0,9.74-1.09,11.81-3.16s3.17-6.16,3.17-11.81V441.8h94.2c5.66,0,9.74-1.1,11.82-3.17s3.16-6.16,3.16-11.81V354.63c0-5.65-1.09-9.74-3.17-11.82s-6.16-3.16-11.81-3.16Z"/><path class="cls-1" d="M3062.81,741.25q0,11.34-5.07,16.4t-16.41,5.08h-87.7q-11.34,0-16.41-5.08t-5.07-16.4V583.73q0-17.9,5.67-41.16t17.6-54.3l51.91-135.43q3.57-10.14,11-14.92t19.39-4.77h160.5q11.33,0,18.79,4.77t11,14.92L3280,488.27q11.93,31,17.6,54.3t5.67,41.16V741.25q0,11.34-5.08,16.4t-16.4,5.08h-90.09q-12,0-17.6-5.08t-5.67-16.4V657.72H3062.81Zm34-282.81-28,90.69h93.67l-28-90.69a22.78,22.78,0,0,0-5.07-7.75,9.15,9.15,0,0,0-6.27-2.39h-14.91a9.15,9.15,0,0,0-6.27,2.39A22.63,22.63,0,0,0,3096.82,458.44Z"/><path class="cls-2" d="M3281.78,769.22h-90.09c-9.58,0-17-2.26-21.94-6.73-5.19-4.62-7.83-11.78-7.83-21.24v-77h-92.61v77c0,9.3-2.34,16.37-7,21s-11.7,7-21,7h-87.7c-9.32,0-16.39-2.34-21-7s-7-11.67-7-21V583.73c0-12.41,2-26.78,5.85-42.7,3.83-15.73,9.84-34.27,17.85-55.09l51.88-135.35c2.87-8.08,7.45-14.19,13.63-18.14,6-3.85,13.72-5.8,22.89-5.8h160.5c8.77,0,16.27,2,22.29,5.79,6.19,4,10.77,10.07,13.64,18.15L3286.06,486c8,20.82,14,39.35,17.84,55.08,3.89,16,5.86,30.32,5.86,42.7V741.25c0,9.3-2.35,16.37-7,21S3291.09,769.22,3281.78,769.22Zm-225.47-118h118.61v90c0,5.6,1.17,9.48,3.49,11.55,2.5,2.25,7.09,3.42,13.28,3.42h90.09c5.65,0,9.74-1.09,11.81-3.16s3.17-6.16,3.17-11.81V583.73c0-11.34-1.85-24.68-5.49-39.63-3.7-15.18-9.54-33.18-17.35-53.49L3222,355c-1.91-5.4-4.66-9.2-8.42-11.61s-9-3.74-15.28-3.74h-160.5c-6.65,0-12,1.26-15.88,3.75s-6.51,6.19-8.41,11.6l-.06.16L2961.49,490.6c-7.82,20.32-13.66,38.31-17.36,53.5-3.64,14.92-5.48,28.25-5.48,39.63V741.25c0,5.66,1.09,9.74,3.16,11.8s6.16,3.17,11.82,3.17h87.7c5.66,0,9.74-1.09,11.81-3.16s3.17-6.16,3.17-11.81Zm115-95.59H3060l30.91-99.82c2-4.46,4.16-7.73,6.69-10a15.74,15.74,0,0,1,10.59-4h14.91a15.74,15.74,0,0,1,10.58,4c2.52,2.24,4.7,5.5,6.7,10l.27.72Zm-93.67-13h76l-25.32-81.88c-1.51-3.32-2.71-4.68-3.3-5.21a2.72,2.72,0,0,0-1.95-.74h-14.91a2.73,2.73,0,0,0-2,.75,15.74,15.74,0,0,0-3.28,5.19Z"/><path class="cls-1" d="M3575.92,762.73H3387.38q-11.34,0-16.41-5.08t-5.07-16.4V671.44q0-11.33,5.07-16.41t16.41-5.07h160.49q7.76,0,11.64-5.07a19.56,19.56,0,0,0,3.88-12.23q0-10.14-3.88-14.92t-11.64-5.37l-89.49-12.53q-41.77-6-67.12-27.44t-25.36-71.6V438.16q0-50.71,32.82-77.86t90.68-27.15h167.06q11.33,0,16.41,5.07t5.07,16.41v71q0,11.34-5.07,16.4t-16.41,5.08h-139q-7.77,0-11.94,5.07c-2.79,3.38-4.17,7.66-4.17,12.82a20.69,20.69,0,0,0,4.17,13.13c2.78,3.58,6.76,5.58,11.94,6L3606.34,496q41.76,6,67.42,27.45t25.66,71.59v62.65q0,50.71-33.12,77.86T3575.92,762.73Z"/><path class="cls-2" d="M3575.92,769.22H3387.38c-9.32,0-16.39-2.34-21-7s-7-11.67-7-21V671.44c0-9.31,2.35-16.38,7-21s11.69-7,21-7h160.49c4.07,0,5.65-1.44,6.48-2.52a13.09,13.09,0,0,0,2.54-8.28c0-6.47-1.33-9.46-2.43-10.83-.52-.63-2.12-2.59-7.09-3l-.4,0-89.49-12.53c-29-4.13-52.65-13.86-70.42-28.92-18.35-15.54-27.66-41.3-27.66-76.56V438.16c0-35.68,11.83-63.56,35.17-82.87,23-19,54.88-28.64,94.83-28.64h167.06c9.3,0,16.36,2.34,21,7s7,11.71,7,21v71c0,9.31-2.35,16.37-7,21s-11.69,7-21,7h-139c-4.21,0-6,1.54-6.92,2.7-1.81,2.2-2.69,5-2.69,8.69a14.29,14.29,0,0,0,2.8,9.14c1,1.34,2.92,3.14,7.3,3.48l.37,0,88.9,11.94c29,4.14,52.76,13.86,70.73,28.9,18.56,15.55,28,41.32,28,76.58v62.65c0,35.69-11.94,63.58-35.49,82.89C3647.27,759.6,3615.47,769.22,3575.92,769.22ZM3387.38,656.46c-5.66,0-9.74,1.1-11.81,3.17s-3.17,6.15-3.17,11.81v69.81c0,5.66,1.09,9.74,3.16,11.8s6.16,3.17,11.82,3.17h188.54c36.47,0,65.49-8.63,86.26-25.67s30.74-40.77,30.74-72.83V595.07c0-31.24-7.85-53.65-23.33-66.61-16.08-13.46-37.67-22.21-64.17-26l-88.66-11.9c-6.87-.56-12.53-3.48-16.38-8.45a27.07,27.07,0,0,1-5.54-17.11c0-6.69,1.9-12.4,5.66-17,2.79-3.39,8-7.43,16.95-7.43h139c5.66,0,9.74-1.1,11.81-3.17s3.17-6.16,3.17-11.81v-71c0-5.65-1.1-9.74-3.17-11.82s-6.16-3.16-11.81-3.16H3489.4c-36.85,0-66,8.63-86.54,25.65s-30.46,40.79-30.46,72.86V500.8c0,31.26,7.76,53.68,23.06,66.64,15.88,13.45,37.36,22.19,63.84,26l89.29,12.5c6.88.58,12.25,3.18,16,7.73s5.34,10.66,5.34,19a26,26,0,0,1-5.22,16.18c-2.66,3.48-7.74,7.62-16.8,7.62Z"/><path class="cls-1" d="M3961.34,762.73h-96.66q-11.34,0-16.4-5.08t-5.07-16.4V448.3H3755.5q-11.34,0-16.41-5.07T3734,426.82V354.63q0-11.33,5.07-16.41t16.41-5.07h315q11.34,0,16.41,5.07t5.07,16.41v72.19q0,11.34-5.07,16.41t-16.41,5.07h-87.7v293q0,11.34-5.07,16.4T3961.34,762.73Z"/><path class="cls-2" d="M3961.34,769.22h-96.65c-9.33,0-16.39-2.34-21-7s-7-11.67-7-21V454.8H3755.5c-9.32,0-16.39-2.35-21-7s-7-11.68-7-21V354.63c0-9.31,2.35-16.38,7-21s11.69-7,21-7h315c9.3,0,16.37,2.34,21,7s7,11.71,7,21v72.19c0,9.31-2.34,16.37-7,21s-11.7,7-21,7h-81.2V741.25c0,9.3-2.35,16.37-7,21S3970.65,769.22,3961.34,769.22ZM3755.5,339.65c-5.65,0-9.74,1.09-11.81,3.17s-3.17,6.15-3.17,11.81v72.19c0,5.66,1.1,9.74,3.16,11.81s6.16,3.17,11.82,3.17h94.21V741.25c0,5.66,1.09,9.74,3.16,11.8s6.15,3.17,11.82,3.17h96.65c5.65,0,9.74-1.09,11.81-3.16s3.17-6.16,3.17-11.81V441.8h94.2c5.66,0,9.74-1.1,11.82-3.17s3.16-6.16,3.16-11.81V354.63c0-5.65-1.09-9.74-3.17-11.82s-6.16-3.16-11.81-3.16Z"/><path class="cls-1" d="M4247.72,741.25q0,11.34-5.07,16.4t-16.41,5.08h-87.7q-11.34,0-16.41-5.08t-5.07-16.4V583.73q0-17.9,5.67-41.16t17.6-54.3l51.91-135.43q3.57-10.14,11-14.92t19.39-4.77h160.5q11.33,0,18.79,4.77t11,14.92l51.91,135.43q11.93,31,17.6,54.3t5.67,41.16V741.25q0,11.34-5.07,16.4t-16.41,5.08H4376.6q-11.94,0-17.6-5.08t-5.67-16.4V657.72H4247.72Zm34-282.81-28,90.69h93.67l-28-90.69a22.78,22.78,0,0,0-5.07-7.75,9.15,9.15,0,0,0-6.27-2.39h-14.91a9.15,9.15,0,0,0-6.27,2.39A22.63,22.63,0,0,0,4281.73,458.44Z"/><path class="cls-2" d="M4466.69,769.22H4376.6c-9.58,0-17-2.26-21.94-6.73-5.19-4.62-7.83-11.78-7.83-21.24v-77h-92.61v77c0,9.3-2.34,16.37-7,21s-11.7,7-21,7h-87.7c-9.32,0-16.39-2.34-21-7s-7-11.67-7-21V583.73c0-12.41,2-26.78,5.85-42.7,3.83-15.73,9.84-34.27,17.85-55.09l51.88-135.35c2.87-8.08,7.45-14.19,13.63-18.14,6-3.85,13.72-5.8,22.89-5.8h160.5c8.77,0,16.27,2,22.29,5.79,6.19,4,10.77,10.07,13.64,18.15L4471,486c8,20.82,14,39.35,17.84,55.08,3.89,16,5.86,30.32,5.86,42.7V741.25c0,9.3-2.35,16.37-7,21S4476,769.22,4466.69,769.22Zm-225.47-118h118.61v90c0,5.6,1.17,9.48,3.49,11.55,2.5,2.25,7.09,3.42,13.28,3.42h90.09c5.65,0,9.74-1.09,11.81-3.16s3.17-6.16,3.17-11.81V583.73c0-11.34-1.85-24.68-5.49-39.63-3.7-15.18-9.54-33.18-17.35-53.49l-52-135.61c-1.91-5.4-4.66-9.2-8.42-11.61s-9-3.74-15.28-3.74h-160.5c-6.65,0-12,1.26-15.88,3.75s-6.51,6.19-8.41,11.6l-.06.16L4146.4,490.6c-7.82,20.32-13.66,38.31-17.36,53.5-3.64,14.92-5.48,28.25-5.48,39.63V741.25c0,5.66,1.09,9.74,3.16,11.8s6.16,3.17,11.82,3.17h87.7c5.66,0,9.74-1.09,11.82-3.16s3.16-6.16,3.16-11.81Zm114.95-95.59H4244.88l30.91-99.82c2-4.46,4.16-7.73,6.69-10a15.74,15.74,0,0,1,10.59-4H4308a15.74,15.74,0,0,1,10.58,4c2.52,2.24,4.71,5.5,6.7,10l.27.72Zm-93.67-13h76.05l-25.32-81.88c-1.51-3.32-2.71-4.68-3.3-5.21a2.72,2.72,0,0,0-2-.74h-14.91a2.73,2.73,0,0,0-2,.75,15.74,15.74,0,0,0-3.28,5.19Z"/><path class="cls-1" d="M4847.34,762.73H4701.76q-74.6,0-110.68-29.84T4555,641V455.46q0-62,36.09-92.18t110.68-30.13h145.58q11.33,0,16.41,5.07t5.07,16.41v72.19q0,11.34-5.07,16.41t-16.41,5.07H4727.41q-18.49,0-27.44,7.46T4691,478.13v142q0,14.93,8.95,21.78t27.44,6.86h119.93q11.33,0,16.41,5.07t5.07,16.41v71q0,11.34-5.07,16.4T4847.34,762.73Z"/><path class="cls-2" d="M4847.34,769.22H4701.76c-51.05,0-89.68-10.53-114.82-31.32-25.51-21.08-38.45-53.68-38.45-96.89V455.46c0-43.2,12.93-75.89,38.43-97.17,25.16-21,63.79-31.64,114.84-31.64h145.58c9.29,0,16.36,2.34,21,7s7,11.71,7,21v72.19c0,9.31-2.35,16.37-7,21s-11.7,7-21,7H4727.41c-10.7,0-18.54,2-23.28,5.95-4.45,3.71-6.61,9.4-6.61,17.38v142c0,7.88,2.09,13.32,6.4,16.62,4.78,3.66,12.68,5.52,23.49,5.52h119.93c9.29,0,16.36,2.34,21,7s7,11.71,7,21v71c0,9.3-2.35,16.37-7,21S4856.64,769.22,4847.34,769.22ZM4701.76,339.65c-47.92,0-83.76,9.63-106.51,28.62-22.4,18.7-33.76,48-33.76,87.19V641c0,39.15,11.35,68.38,33.73,86.87,22.75,18.81,58.59,28.34,106.54,28.34h145.58c5.65,0,9.74-1.09,11.81-3.16s3.17-6.16,3.17-11.81v-71c0-5.65-1.1-9.74-3.18-11.82s-6.15-3.16-11.8-3.16H4727.41c-13.93,0-24.2-2.69-31.4-8.21-7.62-5.83-11.49-14.9-11.49-26.93v-142c0-11.91,3.8-21.12,11.29-27.36,7.14-6,17.77-9,31.6-9h119.93c5.65,0,9.74-1.1,11.81-3.17s3.17-6.16,3.17-11.81V354.63c0-5.65-1.1-9.74-3.18-11.82s-6.15-3.16-11.8-3.16Z"/><path class="cls-1" d="M5050.19,762.73h-92.48q-11.34,0-16.41-5.08t-5.07-16.4V354.63q0-11.33,5.07-16.41t16.41-5.07h92.48q11.32,0,16.41,5.07t5.07,16.41V491.85h23.86l61.45-139q4.17-10.74,11.34-15.22t18.5-4.47h91.88q10.14,0,13.72,5.07t-.6,14.62l-60.85,139q33.4,1.8,53.4,23.57t20,57.58V741.25q0,11.34-5.07,16.4t-16.4,5.08H5191q-11.34,0-16.4-5.08t-5.08-16.4V624.9q0-9.54-4.77-14.91t-14.32-5.37h-78.75V741.25q0,11.34-5.07,16.4T5050.19,762.73Z"/><path class="cls-2" d="M5282.88,769.22H5191c-9.32,0-16.39-2.34-21-7s-7-11.67-7-21V624.9c0-4.69-1.05-8.26-3.13-10.6-1.91-2.14-5-3.18-9.46-3.18h-72.25V741.25c0,9.3-2.35,16.37-7,21s-11.69,7-21,7h-92.48c-9.32,0-16.39-2.34-21-7s-7-11.67-7-21V354.63c0-9.31,2.35-16.38,7-21s11.69-7,21-7h92.48c9.29,0,16.36,2.34,21,7s7,11.71,7,21V485.35h13.13l59.68-135c3.28-8.38,8-14.51,13.9-18.23s13.18-5.46,21.94-5.46h91.88c9,0,15.36,2.63,19,7.82,3.78,5.35,3.79,12.41.05,21l-57.26,130.81c19.74,2.79,36.07,11.1,48.63,24.77,14.4,15.7,21.7,36.55,21.7,62V741.25c0,9.3-2.34,16.37-7,21S5292.18,769.22,5282.88,769.22Zm-217.71-171.1h85.25c8.27,0,14.72,2.54,19.18,7.54,4.26,4.8,6.41,11.27,6.41,19.24V741.25c0,5.66,1.1,9.74,3.17,11.8s6.15,3.17,11.81,3.17h91.89c5.65,0,9.73-1.09,11.81-3.16s3.16-6.16,3.16-11.81V573c0-22.07-6.15-40-18.27-53.19s-28.27-20.36-49-21.47l-9.37-.5,64.62-147.61c1.69-3.87,2.16-7,1.24-8.26-1-1.47-4.11-2.32-8.41-2.32h-91.88c-6.29,0-11.35,1.17-15,3.49s-6.48,6.27-8.73,12.05l-.11.28-63.16,142.88h-34.6V354.63c0-5.65-1.1-9.74-3.18-11.82s-6.15-3.16-11.8-3.16h-92.48c-5.65,0-9.74,1.09-11.81,3.17s-3.17,6.15-3.17,11.81V741.25c0,5.66,1.09,9.74,3.16,11.8s6.16,3.17,11.82,3.17h92.48c5.65,0,9.74-1.09,11.81-3.16s3.17-6.16,3.17-11.81Z"/><rect class="cls-3" x="65.95" y="382.15" width="748" height="75" rx="5"/><path class="cls-2" d="M809,382.15a5,5,0,0,1,5,5v65a5,5,0,0,1-5,5H71a5,5,0,0,1-5-5v-65a5,5,0,0,1,5-5H809m0-10H71a15,15,0,0,0-15,15v65a15,15,0,0,0,15,15H809a15,15,0,0,0,15-15v-65a15,15,0,0,0-15-15Z"/><g class="cls-4"><rect class="cls-5" x="718.95" y="382.15" width="40" height="75"/></g><g class="cls-4"><rect class="cls-5" x="616.95" y="382.15" width="20" height="75"/></g><g class="cls-4"><rect class="cls-5" x="503.95" y="382.15" width="30" height="75"/></g><g class="cls-4"><rect class="cls-5" x="413.95" y="382.15" width="28" height="75"/></g><g class="cls-4"><rect class="cls-5" x="284.95" y="382.15" width="26" height="75"/></g><g class="cls-4"><rect class="cls-5" x="203.95" y="382.15" width="40" height="75"/></g><g class="cls-4"><rect class="cls-5" x="112.95" y="382.15" width="12" height="75"/></g><g class="cls-4"><rect class="cls-5" x="138.95" y="382.15" width="20" height="75"/></g><g class="cls-4"><rect class="cls-5" x="354.82" y="382.15" width="20.13" height="75"/></g><g class="cls-4"><rect class="cls-5" x="657.95" y="382.15" width="13" height="75"/></g><g class="cls-4"><rect class="cls-5" x="779.82" y="382.15" width="9.13" height="75"/></g><g class="cls-4"><rect class="cls-5" x="564.25" y="382.15" width="21.7" height="75"/></g><g class="cls-4"><rect class="cls-5" x="465.95" y="382.15" width="13" height="75"/></g><rect class="cls-6" x="65.95" y="487.77" width="748" height="120" rx="60"/><path class="cls-2" d="M754,487.77a60,60,0,0,1,0,120H126a60,60,0,0,1,0-120H754m0-10H126a70,70,0,0,0,0,140H754a70,70,0,0,0,0-140Z"/><rect class="cls-7" x="166.42" y="516.77" width="42" height="12" rx="6"/><rect class="cls-7" x="213.42" y="571.77" width="42" height="12" rx="6"/><rect class="cls-7" x="318.42" y="535.77" width="42" height="12" rx="6"/><rect class="cls-7" x="406.42" y="586.77" width="42" height="12" rx="6"/><rect class="cls-7" x="442.42" y="504.77" width="42" height="12" rx="6"/><rect class="cls-7" x="535.42" y="555.77" width="42" height="12" rx="6"/><rect class="cls-7" x="612.42" y="510.77" width="42" height="12" rx="6"/><rect class="cls-7" x="677.42" y="571.77" width="42" height="12" rx="6"/><rect class="cls-7" x="747.42" y="529.77" width="42" height="12" rx="6"/><rect class="cls-7" x="87.42" y="561.77" width="42" height="12" rx="6"/><rect class="cls-8" x="65.95" y="617.77" width="748" height="25" rx="5.21"/><path class="cls-2" d="M808.74,617.77A5.21,5.21,0,0,1,814,623v14.59a5.2,5.2,0,0,1-5.21,5.2H71.16a5.2,5.2,0,0,1-5.21-5.2V623a5.21,5.21,0,0,1,5.21-5.21H808.74m0-10H71.16A15.22,15.22,0,0,0,56,623v14.59a15.22,15.22,0,0,0,15.21,15.2H808.74A15.22,15.22,0,0,0,824,637.57V623a15.22,15.22,0,0,0-15.21-15.21Z"/><rect class="cls-1" x="255.55" y="617.77" width="368.79" height="25" rx="3.66"/><path class="cls-2" d="M620.69,617.77a3.66,3.66,0,0,1,3.66,3.66v17.69a3.66,3.66,0,0,1-3.66,3.65H259.21a3.66,3.66,0,0,1-3.66-3.65V621.43a3.66,3.66,0,0,1,3.66-3.66H620.69m0-10H259.21a13.68,13.68,0,0,0-13.66,13.66v17.69a13.67,13.67,0,0,0,13.66,13.65H620.69a13.67,13.67,0,0,0,13.66-13.65V621.43a13.68,13.68,0,0,0-13.66-13.66Z"/><rect class="cls-2" x="687.46" y="617.77" width="9.97" height="12.5"/><rect class="cls-2" x="750.63" y="630.27" width="9.97" height="12.5"/><rect class="cls-2" x="561.13" y="630.27" width="9.97" height="12.5"/><rect class="cls-2" x="497.96" y="617.77" width="9.97" height="12.5"/><rect class="cls-2" x="434.79" y="630.27" width="9.97" height="12.5"/><rect class="cls-2" x="371.63" y="630.27" width="9.97" height="12.5"/><rect class="cls-2" x="308.46" y="617.77" width="9.97" height="12.5"/><rect class="cls-2" x="182.13" y="617.77" width="9.97" height="12.5"/><rect class="cls-2" x="113.97" y="630.27" width="9.97" height="12.5"/><path class="cls-9" d="M113.89,652.77v64a39.15,39.15,0,0,0,11.94,28.11.81.81,0,0,0,.09.1l.49.45.59.55.81.7.61.51q.42.35.84.66l.64.49c.28.21.58.42.87.62l.66.45c.3.2.6.4.91.59l.67.42.94.54.69.39,1,.5.71.35,1,.46.72.32,1,.4.74.29,1.05.36.75.25,1.08.3.77.22,1.1.25c.26.06.51.13.77.18s.76.14,1.14.2l.77.14c.4.06.81.1,1.21.15.24,0,.48.07.73.09.45.05.9.08,1.35.11l.61,0c.66,0,1.33.06,2,.06H726.76c.64,0,1.27,0,1.89-.05l.61,0,1.27-.1.7-.08c.39,0,.77-.09,1.15-.15l.72-.11,1.13-.2.69-.14,1.17-.27.61-.15c.46-.12.92-.26,1.37-.39l.38-.11c.58-.19,1.15-.38,1.72-.59l.37-.14,1.31-.52.56-.25,1.08-.49.61-.3c.34-.16.67-.33,1-.51l.61-.33c.33-.18.65-.37,1-.57l.57-.33,1-.67.47-.3c.48-.34,1-.68,1.44-1l.08-.07c.41-.3.81-.62,1.21-.94l0,0A39.2,39.2,0,0,0,766,716.73v-64Z"/><path class="cls-2" d="M766,652.77v64a39.2,39.2,0,0,1-14.49,30.39l0,0c-.4.32-.8.64-1.21.94l-.08.07c-.47.35-1,.69-1.44,1l-.47.3-1,.67-.57.33c-.32.2-.65.39-1,.57l-.61.33c-.33.18-.66.35-1,.51l-.61.3-1.08.49-.56.25-1.31.52-.37.14c-.57.21-1.14.4-1.72.59l-.38.11c-.45.13-.91.27-1.37.39l-.61.15-1.17.27-.69.14-1.13.2-.72.11c-.38.06-.76.11-1.15.15l-.7.08-1.27.1-.61,0c-.62,0-1.25.05-1.89.05H153.13c-.66,0-1.33,0-2-.06l-.61,0c-.45,0-.9-.06-1.35-.11-.25,0-.49-.06-.73-.09-.4,0-.81-.09-1.21-.15l-.77-.14c-.38-.06-.76-.12-1.14-.2s-.51-.12-.77-.18l-1.1-.25-.77-.22-1.08-.3-.75-.25-1.05-.36-.74-.29-1-.4-.72-.33c-.34-.14-.67-.29-1-.45l-.71-.35-1-.5-.69-.39-.94-.54-.67-.42c-.31-.19-.61-.39-.91-.59l-.66-.45c-.29-.2-.59-.41-.87-.62l-.64-.49q-.42-.31-.84-.66l-.61-.51-.81-.7-.59-.55-.49-.45a.81.81,0,0,1-.09-.1,39.15,39.15,0,0,1-11.94-28.11v-64H766m10-10H103.89v74a48.82,48.82,0,0,0,14.71,35l.38.38.5.47.09.08,6.86-7.27-6.82,7.31.71.65,1,.88,0,0,.72.61,1.07.84.1.08.7.52,1.08.78.15.1.67.46,1.15.74.13.09.72.44,1.17.68.14.08.73.4,1.12.58.09,0,.17.09.73.35c.38.19.78.37,1.18.54l.07,0,.17.07.74.33c.38.16.76.31,1.15.45l.13.06.19.07.75.29,1.19.4.13.05.18.06.77.25,1.19.34.16,0,.19.05.78.22,1.19.28.19,0,.18,0,.8.18,1.2.22.22,0,.19,0,.79.14,1.3.17.21,0,.16,0c.26,0,.51.07.77.09.51.06,1,.09,1.55.13H150l.69,0c.84,0,1.68.07,2.49.07H726.76c.77,0,1.54,0,2.38-.06l.61,0h.14l1.59-.13.78-.08h.12l1.44-.19.9-.14,1.41-.25.88-.18,1.47-.34.15,0,.63-.15c.57-.15,1.14-.32,1.72-.49l.47-.15c.71-.22,1.44-.47,2.16-.73l.47-.18c.55-.21,1.1-.42,1.64-.65l.57-.25.14-.06,1.35-.61.77-.38c.42-.21.84-.42,1.25-.64l.77-.42,1.23-.71.11-.07.59-.35c.45-.28.88-.55,1.3-.84l.11-.07.48-.31c.64-.44,1.23-.86,1.8-1.29l.19-.14c.51-.39,1-.75,1.42-1.12l.07,0,.06-.05.29-.24A49.12,49.12,0,0,0,776,716.73v-74Z"/><path class="cls-10" d="M113.89,652.77v64a39.15,39.15,0,0,0,11.94,28.11,2.12,2.12,0,0,1,1.66-3.54h.05c19.48.91,18.22-11.66,4.67-21.39-2.84-2-5.74-4.48-7.16-7.42-3.23-6.65.78-12.52,7.11-10.54,2.93.92,4.59,3.84,6.8,4.25,1.36.26,2.8-.2,4.44-2.17a8.68,8.68,0,0,0,2.14-6c-.35-3-2.56-5.87-3.27-9.75v0a5.5,5.5,0,0,1,2.55-5.54c3.64-2.31,11-7.08,14.65-5.19,4.66,2.4,2.78,16.77,3.16,16.66,0,.3,0,.59,0,.89,0,4.27-.9,12.14,1.61,15.69,3.36,4.76,9.25,1.23,8.95-2-.15-1.62-1.51-3.24-1.79-5.13a4.49,4.49,0,0,1,4.47-5.3,2.46,2.46,0,0,1,.47,0c9.21,1,4.37,16.57,11.35,25.09,17,20.7,26.1-5.25,31.81-10,8.72-7.21,18.33,4.71,26.28-5.56,6.78-8.75,7.57,13.74,8.17,20.56.8,9.25,9.47,11.09,14.35-.43,4.46-10.52,8.36-27.61,13.69-26.25,4.11,1,2.82,5,6.13,6.71,4.6,2.33,11.9-6.76,18.32-12,7.51-6.06,13.05-1.74,9.79,4.25-3.81,7,1.18,12.55,5,8.44,6.6-7.05,12.57-6.5,11.53,3.58-.65,7.14,2.73,6.19,4.31,9.22,6,11.48,12.86,2.17,17.95,2.78,9.38,1.13,2.75,13.57,8.23,15.51,8.38,3,15.94-19,25.25-5.17,2.18,3.22,8.12,6.38,12.47,2.82,2.21-1.81,2.71-5.51,3.21-9.19.9-6.67,2.41-11.52,10.24-12.08,13.61-1,8.22,13.22,21.07,16.63,11.09,2.94,28.56-1.7,26.53-16.25-.56-4-3.84-6.46-6.52-10.9-7.18-11.9,7.78-16.89,12.5-7.32,5.16,10.47,15.95,15.82,27,11.62,10.12-3.83,23.41-18.76,34.8-10.26,6.55,4.89,5.8,15.9,5.22,24.24-1.22,17.53,22.83,14.53,18.81,7.7-4.72-8,2.13-12.39,9.31-7.22,5.81,4.18,12.94-2.85,11.21-10.47-2-8.84,9.1-16.54,18.31-9.72,5,3.68,7.38,3.08,9.57,1.25,3.07-2.55,5.22-6.25,9.33-7,5.91-1.12,9.92,1.62,11.47,5.94,2.95,8.19-1.82,11.9-5.9,15.86C603.5,734,623.1,743.06,627.92,732a38.32,38.32,0,0,0,1.16-4.26c1.07-3.35,4-3.64,6.25-1,2.51,2.89,6.48,2.45,9.13.12,4.21-3.68,1-10-.77-14.08a17.15,17.15,0,0,1-1.74-8.18,8.26,8.26,0,0,1,5-6.64c5.49-2.48,13.1-11.53,13.1-11.53,1.31-1.19,3-1.93,6.22-1.83a11.81,11.81,0,0,1,10.62,7c2.25,4.79.83,8.28-1.63,11.82-3.89,5.62-6.76,8.78-6.93,14a18,18,0,0,0,3.12,10.71c2.16,3,6,5.13,8.57,3.22,1.82-1.37,2-3.93,2.8-6.16,1.87-5.33,8.47-5.7,11.23-.38,1.25,2.4,1.68,5.67,4.84,5.5,1-.06,2.19-1,3.45-3.53,2.24-4.48,3.07-12.11,10.94-12s7.33,6.93,10.67,7.22a4.78,4.78,0,0,0,2.84-.88c1.75-1.1,3.38-2.54,5.07-3.82,3.06-2.31,11-5.54,10.6,1.34-.17,3.27-10.6,13.4-1.81,18.26,3,1.64,6.44.19,9.58-1.37,3.33-1.66,6.29-3.46,7.86-1.77,2.38,2.55-.15,4.72-2.1,6.23a9.38,9.38,0,0,0-3.8,5.89,2,2,0,0,1-.71,1.24A39.2,39.2,0,0,0,766,716.73v-64Z"/><path class="cls-11" d="M783.1,652.77H93c-.48,25.07,11.51,33.9,27.37,33.31a36.84,36.84,0,0,0,15.32-4.29c4.86-2.46,8.07-5.84,11.3-8.39,13-10.26,16.33,3.34,25.41,3,9.64-.32,13.41-10,26.92-7.67,20.29,3.47,10.58,36.83,65.31,5.75,19.81-11.25,41-13.22,62.65-4.7a222.14,222.14,0,0,1,20.17,9.44c49.68,25.6,54.35,20.37,106.5-.93,24.14-9.85,49-21,66.52,2.55C530,693.65,536,699.31,548,699.05c30.89-.69,33.72-49.14,59.7-24.78,4.11,3.86,9.23,7,19.58,3.25,5.83-2.12,10.62-5.47,18-6.18,26.9-2.59,34.89,30.26,57.09,30.4,21.55.14,22.46-27.38,39.59-28.43,9.64-.6,17.8,8.22,29.26,8.25C783.13,681.59,792.35,673.27,783.1,652.77Z"/><path class="cls-2" d="M783.1,652.77c9.23,20.47.06,28.79-11.87,28.79h-.06c-11.08,0-19.09-8.28-28.32-8.28-.31,0-.63,0-.94,0-17.09,1.05-18,28.43-39.43,28.43h-.16c-21.35-.14-29.56-30.55-54.11-30.55-1,0-2,0-3,.15-7.37.71-12.16,4.06-18,6.18a24.78,24.78,0,0,1-8.4,1.69c-5.1,0-8.37-2.31-11.18-4.94-5.22-4.89-9.49-6.84-13.25-6.84-15,0-21.76,31.07-46.45,31.62h-.8c-11.44,0-17.36-5.69-26.65-18.18-7.71-10.34-16.83-14-26.69-14-12.56,0-26.31,5.92-39.83,11.44-27.77,11.35-42.07,18.13-56.88,18.13-13,0-26.39-5.23-49.62-17.2a222.14,222.14,0,0,0-20.17-9.44,72.72,72.72,0,0,0-26.73-5.27c-12.32,0-24.36,3.4-35.92,10-17.12,9.72-27.93,13.13-35.33,13.13-16.26,0-16-16.5-30-18.88a24.34,24.34,0,0,0-4-.35c-10.38,0-14.31,7.74-22.92,8h-.29c-6.4,0-10-6.88-16.29-6.88-2.43,0-5.27,1-8.83,3.84-3.23,2.55-6.44,5.93-11.3,8.39a36.84,36.84,0,0,1-15.32,4.29c-.48,0-1,0-1.45,0-15.13,0-26.38-9-25.92-33.34H783.1m6.46-10H83.24l-.19,9.81c-.29,14.88,3.33,26.26,10.77,33.84,6.21,6.34,14.91,9.69,25.14,9.69l1.82,0a46.37,46.37,0,0,0,19.46-5.37A52.23,52.23,0,0,0,151,683.16c.81-.71,1.58-1.37,2.28-1.92a10.9,10.9,0,0,1,2.56-1.62,26.52,26.52,0,0,1,2.46,1.58c3,2.09,7.56,5.24,13.9,5.24h.62c6.6-.21,11.23-2.94,14.94-5.14,3.29-1.94,5-2.87,7.65-2.87a14.06,14.06,0,0,1,2.32.21c2.55.43,4,2,7.26,5.85,4.37,5.25,11,13.17,24.4,13.17,10.12,0,22.92-4.58,40.26-14.43,10.13-5.76,20.56-8.67,31-8.67a63,63,0,0,1,23.07,4.58,212.15,212.15,0,0,1,19.25,9c23,11.87,38.51,18.31,54.2,18.31,14.94,0,28.46-5.59,50.87-14.84l9.79-4,2.14-.87c11.79-4.83,24-9.83,33.91-9.83,7.78,0,13.54,3.08,18.67,10,9.36,12.58,17.86,22.21,34.67,22.21l1,0c18.38-.4,29-13.13,36.67-22.41,2.86-3.44,7.65-9.2,9.56-9.2.74,0,2.92.87,6.41,4.13s9.17,7.65,18,7.65a34.46,34.46,0,0,0,11.82-2.29c2.16-.79,4.08-1.66,5.93-2.5,3.45-1.56,6.17-2.8,9.6-3.13a20.08,20.08,0,0,1,2-.1c8.64,0,14.88,6.12,22.11,13.2,8.25,8.09,17.6,17.26,31.94,17.35h.22c16.56,0,24.6-11.22,30.47-19.41,4.42-6.15,6.66-8.86,9.57-9h.33c2.24,0,5.24,1.37,8.71,3,5.19,2.37,11.64,5.31,19.58,5.33h.09c9.53,0,17.52-3.9,21.92-10.71,3.65-5.65,6.45-15.82-.94-32.19l-2.65-5.89Z"/><path class="cls-12" d="M761.33,467.77H118.82c-4.91.07-5.75,3.37-4.33,7l23.58,62.9c3.54,9.43,8.76,15.52,14.52,23.77,3.37,4.3,5.41,1.83,8.29-.82,23.92-22,48.23-45,72.33-67.53,11.09-10.1,23.86-12.88,35.64-16h158l155,57.89L636,566.13c4.9,2.78,7.56,1.77,9.07-.9l46.4-88.06h69.9a4.69,4.69,0,0,0,4.7-4.7h0A4.7,4.7,0,0,0,761.33,467.77Z"/><path class="cls-2" d="M761.33,467.77a4.7,4.7,0,0,1,0,9.4h-69.9L645,565.23a4.46,4.46,0,0,1-4,2.55,10.56,10.56,0,0,1-5-1.65L581.83,535l-155-57.89h-158c-11.78,3.15-24.55,5.93-35.64,16-24.1,22.52-48.41,45.49-72.33,67.53-1.75,1.61-3.19,3.15-4.81,3.15-1,0-2.16-.64-3.48-2.33-5.76-8.25-11-14.34-14.52-23.77l-23.58-62.9c-1.42-3.66-.58-7,4.33-7H761.33m0-10H118.69c-7.29.1-11,3.93-12.48,6.2-2.71,4-3.09,9.12-1.07,14.39q11.79,31.42,23.57,62.85c3.3,8.81,7.72,14.92,12.4,21.39,1.07,1.48,2.18,3,3.28,4.59l.16.23.17.22c4,5.09,8.38,6.16,11.35,6.16,5.38,0,8.93-3.32,11.05-5.3l.53-.5c16.48-15.18,33.4-31,49.76-46.38Q228.71,511,240,500.47c8.43-7.66,18.29-10.25,28.74-13l1.43-.38H425l152.55,57L631,574.8h0l0,0a20.06,20.06,0,0,0,10,2.95,14.4,14.4,0,0,0,12.75-7.62l.08-.13.07-.14,27.4-52,16.18-30.72h63.87a14.7,14.7,0,0,0,0-29.4Z"/><path class="cls-13" d="M819.76,321.45a5,5,0,0,1,4.93-3.13c3.15.31,5.4,3.59,3.79,8-3.72,10.12.6,17.58,11.65,13.79,2.33-.8,5.28-2.5,8.21-3.53,9.26-3.26,14.4,4.32,6.12,11.95-4.46,4.12-10.4,9.32-6.25,16,2.36,3.77,7.54,5.9,11.59,5.47,3.41-.36,7.11-2.13,10.5-2.36,5.37-.16,7.75,5.29,2.53,9.38-2.7,2.12-6.27,4.54-6.08,8.14.16,3.17,3,5.62,4.67,8.63a4.87,4.87,0,0,1-2.7,7.32c-2.46.85-6.29-.4-10.5-1.84-21.63-7.4-26.53,6.22-16.39,14.11,2.55,2,5.87,4.84,2.75,8.18-2.06,2.2-5.94-.14-10.31-2.32-4.11-2.05-8.66-3.95-12.55-1.8-11.52,6.38,2.15,19.65,2.37,23.94.46,9-9.88,4.77-13.89,1.75-2.22-1.67-4.35-3.57-6.65-5a6.23,6.23,0,0,0-3.73-1.15c-4.37.38-3.68,9.26-14,9.46s-11.4-9.8-14.35-15.67c-1.64-3.28-3.14-4.55-4.51-4.63-4.15-.22-4.7,4.06-6.34,7.21-3.62,7-12.26,6.48-14.72-.51-1-2.91-1.29-6.28-3.67-8.06-3.32-2.5-8.41.32-11.24,4.21a23.65,23.65,0,0,0-4.09,14c.23,6.78,4,10.92,9.09,18.28,3.22,4.65,5.08,9.22,2.14,15.5a15.47,15.47,0,0,1-13.92,9.17c-9.39.29-8.71-4.78-15.21-9.78a49.28,49.28,0,0,0-7-4.32c-9.7-5-12.17-12-7.43-22.83,2.32-5.33,6.52-13.63,1-18.46-3.48-3.05-8.69-3.62-12,.17-3,3.47-6.79,3.09-8.19-1.3-.53-1.67-.68-3.67-1.52-5.59-6.33-14.49-32-2.67-14.06,14.75,5.34,5.19,11.6,10,7.73,20.78-2,5.66-7.29,9.26-15,7.79-5.39-1-8.21-5.87-12.22-9.22-2.87-2.39-6-3.18-12.55,1.65-12.07,8.93-18.83-2-24-12.75-2.76-5.7-7.08-19.2-14.69-13.72-9.42,6.78-18.4,1.05-12.21-9.46s-11.42-21.05-20.52-10.19a41.05,41.05,0,0,0-5.55,9.84c-2.9,6.65-8.56,10.35-15.84,10.66-11.74.49-22.9-12.07-35.2-16.74-14.5-5.5-28.65,1.52-35.41,15.24-6.18,12.54-25.79,6-16.38-9.6,3.51-5.82,7.81-9,8.54-14.28,2.67-19.07-20.23-25.15-34.77-21.3C404.9,391.7,412,410.29,394.13,409c-10.27-.73-12.25-7.09-13.43-15.82-.66-4.83-1.31-9.68-4.21-12-5.7-4.67-11.63,1.71-16.34,3.7-14.42,6.08-22.11-10.69-33.1-6.79-7.18,2.55-6.59,16.4-16.67,16.16-3-.07-6.11-.7-8.69.09a14.47,14.47,0,0,0-8.95,7.72c-2.08,4-1,8.23-.16,17.59a9.16,9.16,0,0,1-1.44,6.4c-5.55,7.87-15.36-.58-23.28,8.05-2.81,3.05-5.48,9.32-15.32,1.38-8.42-6.81-18-18.72-24-15.66-4.34,2.2-2.86,6.75-8,8.8-4.83,1.9-12-1.93-16.28-2.93-4.09-.95-8.65-1-13.16,2.08-8.78,5.94,1.17,19.9-18,27.65-9,3.64-20.09,2.27-25.33-3a5.31,5.31,0,0,0-4.19-1.6c-4.46.34-7.14-1-8.86-3.08-3.07-3.78-3.18-9.21-4.92-13.62-5-12.54-25.67-7.78-32.83,1-9.1,11.1-2.89,31.33-14.68,32.86a4.36,4.36,0,0,1-1,0c-4.52-.43-6.1-3.88-5.66-6.92.36-2.47,2.16-4.61,2.35-6.73.39-4.19-7.33-8.83-11.73-2.59-3.29,4.66-2.13,15-2.12,20.57,0,9.62-1.88,19.56-13.41,20.46-7.43.58-14.81-3.08-13.26-11.59.92-5.08,3.82-8.82,4.28-12.78.29-2.44-.91-5.62-2.8-7.89-2.15-2.58-4-3.18-5.83-2.85-2.9.55-5.08,4.38-8.91,5.57-8.3,2.6-13.55-5.08-9.33-13.8,1.88-3.86,5.67-7.06,9.39-9.73,17.76-12.75,19.42-29.23-6.11-28-8.51.4-14.09-4-13.9-9.18.55-15.13,17.14-5.19,21.11-13.67,10.9-23.31,20.28,6.68,32.66-1.38,2.42-1.58,3.64-4.53,1.81-6.95-4.58-6.11,1.29-13.44,7.9-7.9,4.42,3.7,12.66,5.48,13.55-8.27a5.12,5.12,0,0,1,5.11-4.81H786.1a5.12,5.12,0,0,0,3.76-1.65l26.23-28.4a5.18,5.18,0,0,0,.95-1.49Z"/><path class="cls-2" d="M49.13,497.77c-5.53,0-10.5-1.92-13.56-5.31-2-2.25-4.22-6.2-3.12-12.23a34.64,34.64,0,0,1,2.66-7.94,18.53,18.53,0,0,0,1.58-4.53A6.85,6.85,0,0,0,35,463.65a5.43,5.43,0,0,0-1.12-1.07,17.37,17.37,0,0,0-1.66,1.31A18.77,18.77,0,0,1,25.6,468c-5.48,1.71-10.76.4-14.12-3.5-3.78-4.38-4.23-11-1.19-17.26,2.46-5.08,7.15-8.88,11-11.61,8.48-6.09,12-12.46,11-15.35-.68-2-4.74-4.06-13.94-3.64C12.1,416.9,6.53,415,3,411.53a12.42,12.42,0,0,1-3.83-9.29c.49-13.2,10.63-13.92,16.08-14.31,3-.21,5.09-.43,5.5-1.29,3.17-6.8,6.7-10.48,11.09-11.61,5.73-1.47,10.61,2.1,14.54,5,5.25,3.84,6.9,4.43,8.83,3.18a1.86,1.86,0,0,0,.24-.18c-3.41-4.91-3.07-11.05.87-14.79,3.26-3.09,9-4.15,14.54.47,1.55,1.3,3.08,1.63,3.51,1.44s1.55-1.65,1.84-6.19a10.15,10.15,0,0,1,10.1-9.49H786.1L812.41,326l2.74-6.48a10,10,0,0,1,10-6.16,9.58,9.58,0,0,1,7.26,4.48,11.51,11.51,0,0,1,.74,10.18c-1.53,4.17-1,6.79-.29,7.53s2.42.91,5.63-.19a34.74,34.74,0,0,0,3.21-1.4c1.5-.7,3.2-1.5,5-2.12,6.59-2.32,12.69-.77,15.54,4,2.31,3.84,2.38,10.16-4.36,16.39l-.35.32c-5.49,5.05-6.53,7-5.06,9.31a8,8,0,0,0,6.82,3.15,25.93,25.93,0,0,0,4.14-1,31.34,31.34,0,0,1,6.55-1.39h.18c4.65-.17,8.63,2.32,10.06,6.28,1.51,4.16-.13,8.77-4.28,12l-.71.55c-.86.67-3.51,2.71-3.47,3.4s1,2,1.82,3.09a31.15,31.15,0,0,1,2.24,3.39,10.27,10.27,0,0,1,.72,8.66,9.88,9.88,0,0,1-6.17,5.8c-4.18,1.44-9-.23-13.74-1.84-9.07-3.1-13.81-1.75-14.66-.17-.62,1.15.32,3.55,2.95,5.61,2,1.52,5.57,4.34,5.92,8.71a8.82,8.82,0,0,1-2.59,6.82c-4.41,4.73-10.47,1.65-14.89-.6l-1.3-.66c-3.1-1.54-6.2-2.84-7.9-1.89s-1.87,1.68-1.94,1.94c-.64,2.3,2,6.78,3.71,9.74s3.05,5.21,3.17,7.62c.31,6-2.8,8.59-4.68,9.59-5.78,3.07-13.78-1-17.21-3.59-.77-.58-1.54-1.19-2.3-1.8a44.17,44.17,0,0,0-4-3l-.15-.09-.48.73c-1.88,2.89-5.39,8.27-14.32,8.44h-.41c-11.37,0-14.89-9.27-17-14.83-.51-1.34-1-2.61-1.49-3.6l-.43-.81-.36.85c-.33.8-.7,1.71-1.17,2.61-2.64,5.09-7.56,8-12.79,7.64a12.73,12.73,0,0,1-11.08-8.8c-.32-.92-.56-1.8-.79-2.64a11.16,11.16,0,0,0-1.1-3h0c-.72,0-2.72,1-4.24,3.1a18.64,18.64,0,0,0-3.14,10.93c.14,4.09,1.93,6.77,6,12.45.71,1,1.46,2,2.23,3.16,3.37,4.87,6.71,11.59,2.55,20.46a20.56,20.56,0,0,1-18.29,12c-8.73.26-11.78-3.48-14.48-6.79a23.15,23.15,0,0,0-3.93-4,42.71,42.71,0,0,0-6.26-3.83c-12.17-6.31-15.44-16.16-9.72-29.28l.48-1.09c2.23-5,4-9.67,1.83-11.61a4.53,4.53,0,0,0-3.15-1.24,2.46,2.46,0,0,0-1.75.92c-2.74,3.17-6.27,4.59-9.69,3.89s-5.85-3.2-7-6.93a26.34,26.34,0,0,1-.65-2.58,14.47,14.47,0,0,0-.69-2.54,5.37,5.37,0,0,0-5.28-3.51c-2.33,0-4.52,1.34-5.21,3.09-.94,2.4.69,5.89,4.49,9.58.37.37.75.73,1.13,1.09,5.28,5,12.52,11.95,7.82,25-3,8.49-11.16,12.8-20.67,11-5.36-1-8.78-4.57-11.53-7.42-1-1.05-2-2.05-3-2.87s-1.84-1.53-6.38,1.83c-5,3.72-10,5-14.71,3.85-7.84-1.93-12.69-10-16.77-18.45-.4-.83-.83-1.82-1.31-2.89-.91-2.1-3.67-8.38-5.43-9.25a2.65,2.65,0,0,0-.52.31c-6.63,4.77-14.16,5.17-18.74,1-3.38-3.08-5.33-9.18-.7-17.05,1.6-2.71-.43-4.71-1.78-5.67-2.08-1.47-7-3.1-10.6,1.23a38.19,38.19,0,0,0-4.79,8.63c-3.62,8.29-11,13.26-20.22,13.65-8.74.37-16.56-4.74-24.12-9.69-4.3-2.82-8.75-5.73-13.06-7.36-11.52-4.37-23.24.76-29.16,12.77A16.17,16.17,0,0,1,454.91,444a13.9,13.9,0,0,1-12.64-6.57c-1.65-2.81-3.66-8.77,1.42-17.2a59.23,59.23,0,0,1,4.15-5.85c2.19-2.83,3.44-4.53,3.72-6.54.66-4.69-.61-8.39-3.88-11.29-5.45-4.83-16.06-6.75-24.66-4.48-5.75,1.53-7.54,5.07-9.8,9.57-2.82,5.6-6.68,13.3-19.45,12.38-15.44-1.09-17.12-13.48-18-20.14-.45-3.3-1.05-7.73-2.42-8.85-1.16-.95-2.25-.8-6.81,2a32.08,32.08,0,0,1-4.41,2.42c-10.14,4.28-17.92-.29-23.6-3.62-4.44-2.59-7.08-4-9.78-3-1.23.43-2.46,2.82-3.66,5.14-2.33,4.51-5.83,11.3-14.41,11.3h-.39c-1,0-1.93-.09-2.84-.16a14.19,14.19,0,0,0-4.27,0,9.57,9.57,0,0,0-6,5.26c-.93,1.78-.72,4.14-.12,9.78.16,1.5.34,3.17.51,5a14,14,0,0,1-2.33,9.74c-4.23,6-10.22,5.91-14.62,5.86-4.16-.06-6.64.05-9.07,2.69-.29.31-.57.67-.87,1-1.58,2-4.24,5.27-8.83,5.76-3.78.4-7.84-1.2-12.44-4.92-2.3-1.85-4.64-4-6.91-6.15-3.35-3.12-9.55-8.89-11.78-8.89h0c-.4.23-.59.53-1.23,1.84a12.69,12.69,0,0,1-7.15,7.11c-5.24,2.06-11,0-15.71-1.59-1.34-.47-2.62-.91-3.53-1.12-3.72-.86-6.57-.45-9.23,1.35-1.52,1-1.88,2.63-2.45,6.59-.91,6.3-2.28,15.82-16.5,21.56-10.85,4.38-24.07,2.6-30.75-4.13a.45.45,0,0,0-.25-.13c-5.71.44-10.12-1.22-13.13-4.92-2.69-3.3-3.62-7.17-4.45-10.58a34.23,34.23,0,0,0-1.24-4.35c-.35-.89-1.42-3.59-6-4.31-6.07-.95-14.62,2.13-18.29,6.6-3.17,3.87-4.05,9.71-4.9,15.36-1.21,8-2.71,18-13,19.29a9.58,9.58,0,0,1-2.14,0A10.83,10.83,0,0,1,70.6,460.29a17.1,17.1,0,0,1,1.65-4.91c.17-.36.4-.84.54-1.2a2.09,2.09,0,0,0-1.18-.54c-.21,0-.69,0-1.37.92-1.7,2.41-1.44,9.62-1.29,13.93,0,1.38.09,2.65.09,3.75,0,15.95-6,24.52-18,25.46C50.38,497.75,49.75,497.77,49.13,497.77ZM33.88,452.52c2.52,0,5.7,1,8.81,4.73,2.86,3.44,4.37,7.91,3.93,11.68a26.13,26.13,0,0,1-2.34,7.35,26.65,26.65,0,0,0-2,5.74c-.4,2.2.22,3.19.72,3.74,1.29,1.44,4.13,2.22,7.24,2,4.27-.34,8.83-1.84,8.8-15.47,0-1,0-2.16-.09-3.42-.23-6.63-.52-14.88,3.12-20a11.38,11.38,0,0,1,13.46-4.44c4.65,1.72,7.74,6.08,7.34,10.37a14.58,14.58,0,0,1-1.56,4.89,9.75,9.75,0,0,0-.82,2.1,1.25,1.25,0,0,0,.14.88,1.6,1.6,0,0,0,1,.34C84,462.6,84.77,460,86,452.09c1-6.66,2.14-14.21,7.06-20.21,5.89-7.18,18-11.63,27.56-10.14,6.62,1,11.52,4.77,13.79,10.52a42.39,42.39,0,0,1,1.66,5.66c.63,2.62,1.23,5.09,2.49,6.63.37.45,1.23,1.51,4.6,1.26a10.28,10.28,0,0,1,8.12,3.05c3.4,3.43,12.21,5,19.91,1.9,8.88-3.58,9.52-8.05,10.34-13.7.63-4.39,1.42-9.85,6.75-13.45,5-3.4,10.61-4.32,17.09-2.81a45.09,45.09,0,0,1,4.57,1.42c2.77,1,7,2.43,8.75,1.73.88-.35,1-.6,1.82-2.19a12.6,12.6,0,0,1,5.79-6.42c7.58-3.85,15.44,3.46,23,10.53,2.14,2,4.36,4.06,6.39,5.7,2.84,2.29,4.55,2.81,5.08,2.75s1.46-1.28,2.11-2.09c.44-.55.87-1.07,1.3-1.54,5.56-6.05,11.93-6,16.56-5.91,4.08,0,5.24-.11,6.31-1.63a4.08,4.08,0,0,0,.55-3c-.17-1.87-.34-3.48-.49-4.94-.71-6.59-1.17-10.94,1.2-15.47a19.38,19.38,0,0,1,11.92-10.19,21.24,21.24,0,0,1,7.94-.45c.82.07,1.6.13,2.33.14h.13c2.19,0,3.18-1.3,5.55-5.89,1.89-3.66,4.24-8.22,9.19-10,7.22-2.56,13.3,1,18.18,3.86,5.67,3.32,9.42,5.24,14.66,3a26.2,26.2,0,0,0,3.06-1.73c4.25-2.61,11.36-7,18.39-1.23,4.41,3.61,5.25,9.76,6,15.19,1.23,9,2.88,11.14,8.84,11.56,6.13.44,7.2-1.71,9.81-6.9s6.07-12.06,16.17-14.73c9.76-2.59,24.52-1.61,33.85,6.66,5.81,5.15,8.28,12.12,7.16,20.16-.67,4.74-3.24,8.06-5.73,11.27a51.19,51.19,0,0,0-3.49,4.9c-1.75,2.91-2.25,5.44-1.37,7a4,4,0,0,0,3.65,1.66,6.18,6.18,0,0,0,5.33-3.8c8.19-16.62,25.33-23.9,41.68-17.7,5.32,2,10.23,5.23,15,8.34,6.52,4.27,12.66,8.27,18.22,8.07s9.35-2.81,11.47-7.67a45.92,45.92,0,0,1,6.3-11c6.89-8.23,17.3-7.72,24-3,6.55,4.63,8.46,12.41,4.63,18.91-1.64,2.78-1.43,4.36-1.18,4.59.43.39,2.77.72,6.16-1.72a10.19,10.19,0,0,1,8.89-1.88c6.27,1.71,9.62,9.34,12.06,14.92.42.95.8,1.83,1.16,2.56,1.73,3.6,5.8,12,10.15,13.09,1.7.42,3.85-.31,6.37-2.18,9.73-7.2,15.35-4.29,18.73-1.47a48.22,48.22,0,0,1,3.76,3.61c2.46,2.55,4.07,4.13,6.19,4.54,4.76.9,8-.68,9.4-4.57,2.39-6.61,0-9.33-5.32-14.36l-1.18-1.14c-9.37-9.09-8.3-16.71-6.83-20.44,2.18-5.51,7.94-9.29,14.33-9.41a15.29,15.29,0,0,1,14.62,9.51,22.2,22.2,0,0,1,1.32,4.46c.07.34.14.67.21,1a12.43,12.43,0,0,1,8.44-4.15,14.49,14.49,0,0,1,10.43,3.69c7.92,6.95,3.24,17.51.73,23.18l-.46,1c-3.6,8.26-2.26,12.56,5.15,16.4a51.55,51.55,0,0,1,7.75,4.78,32.43,32.43,0,0,1,5.59,5.64c2.13,2.61,2.64,3.23,6.42,3.12a10.53,10.53,0,0,0,9.55-6.31c1.7-3.63,1.29-6.18-1.72-10.52-.75-1.08-1.47-2.09-2.15-3.05-4.23-5.95-7.58-10.64-7.82-17.91A28.42,28.42,0,0,1,727,426c2.81-3.86,6.82-6.52,10.73-7.1a9.86,9.86,0,0,1,7.56,1.82c3.13,2.35,4.09,5.87,4.79,8.44.2.71.38,1.38.59,2a2.79,2.79,0,0,0,2.35,2.14c1.24.09,2.42-.77,3.21-2.29.26-.5.52-1.13.79-1.79,1.14-2.75,3.53-8.47,10.26-8.1,5.16.29,7.83,5.62,8.71,7.37a47.14,47.14,0,0,1,1.9,4.53c2.34,6.16,3.59,8.45,7.88,8.39,3.65-.07,4.59-1.51,6.14-3.9,1.35-2.06,3.39-5.18,7.51-5.54a11,11,0,0,1,6.77,1.86,53,53,0,0,1,5,3.65c.7.55,1.39,1.11,2.09,1.64a15.39,15.39,0,0,0,5.84,2.63c-.32-.74-1.14-2.15-1.77-3.22-2.73-4.67-6.48-11.08-4.73-17.44a13.13,13.13,0,0,1,6.75-8c6.05-3.35,12.42-.65,16.3,1.24-4-4.71-5-10.47-2.45-15.23,1.46-2.71,7.71-11,26.69-4.54,2,.67,6,2.07,7.28,1.83l-.08-.17a25.15,25.15,0,0,0-1.57-2.33c-1.57-2.16-3.53-4.85-3.72-8.45-.3-5.92,4.3-9.48,7.35-11.83l.65-.51a5.3,5.3,0,0,0,.47-.41,28.49,28.49,0,0,0-4,1,33.05,33.05,0,0,1-5.87,1.33A17.89,17.89,0,0,1,844,367.11c-6.24-10,2.22-17.78,6.76-22l.34-.31c2.14-2,2.55-3.44,2.55-3.87-.33-.16-1.52-.44-3.62.3-1.29.46-2.68,1.11-4,1.75a44.31,44.31,0,0,1-4.21,1.8c-9,3.08-13.9-.11-16-2.28-3.74-3.83-4.57-9.9-2.34-16.8l-1.74,4.11a9.88,9.88,0,0,1-1.89,2.93l-26.22,28.42a10.14,10.14,0,0,1-7.44,3.25H86.3a.12.12,0,0,0-.12.13c-.62,9.66-4.63,13.35-7.89,14.75-5,2.15-10.46-.12-13.86-3a3.92,3.92,0,0,0-1.28-.77,2.27,2.27,0,0,0,.59,1.83,9.11,9.11,0,0,1,1.74,7.14,10.73,10.73,0,0,1-4.82,7c-8.16,5.31-15.4,0-20.19-3.48-2.11-1.55-5-3.65-6.15-3.36-.19,0-1.94.63-4.52,6.15-2.93,6.26-9.5,6.72-13.85,7-6.08.44-6.65.83-6.79,4.7a2.42,2.42,0,0,0,.87,1.82c1.53,1.53,4.46,2.34,7.8,2.19,17.35-.82,22.38,6.13,23.85,10.33,2.79,8-2.8,18.29-14.59,26.76-2.63,1.89-6.31,4.76-7.81,7.85-1.42,2.94-1.14,5.32-.22,6.38s2.43.83,3.56.47a10.54,10.54,0,0,0,3.13-2.13c1.7-1.44,3.62-3.07,6.34-3.58A10,10,0,0,1,33.88,452.52Z"/><rect class="cls-14" x="77.27" y="295.3" width="400.5" height="58.45" rx="29.04"/><path class="cls-2" d="M448.73,295.3a29,29,0,0,1,29,29v.38a29,29,0,0,1-29,29H106.3a29,29,0,0,1-29-29v-.38a29,29,0,0,1,29-29H448.73m0-10H106.3a39.08,39.08,0,0,0-39,39v.38a39.08,39.08,0,0,0,39,39H448.73a39.08,39.08,0,0,0,39-39v-.38a39.08,39.08,0,0,0-39-39Z"/><g class="cls-4"><rect class="cls-5" x="138.36" y="295.3" width="72.73" height="58.45"/></g><g class="cls-4"><rect class="cls-5" x="223.89" y="295.3" width="13.02" height="58.45"/></g><rect class="cls-14" x="402.13" y="295.3" width="400.5" height="58.45" rx="29.04"/><path class="cls-2" d="M773.6,295.3a29,29,0,0,1,29,29v.38a29,29,0,0,1-29,29H431.17a29,29,0,0,1-29-29v-.38a29,29,0,0,1,29-29H773.6m0-10H431.17a39.08,39.08,0,0,0-39,39v.38a39.08,39.08,0,0,0,39,39H773.6a39.08,39.08,0,0,0,39-39v-.38a39.08,39.08,0,0,0-39-39Z"/><g class="cls-4"><rect class="cls-5" x="651.35" y="295.3" width="51.1" height="58.45"/></g><g class="cls-15"><rect x="713.65" y="295.3" width="17.43" height="58.45"/></g><path class="cls-16" d="M95.8,296.3H785.86c.48,25.07-11.51,33.9-27.37,33.31a36.84,36.84,0,0,1-15.32-4.29c-4.86-2.46-8.07-5.84-11.3-8.4-13-10.25-16.33,3.35-25.41,3.05-9.64-.32-13.41-10-26.92-7.67-20.29,3.46-10.58,36.82-65.31,5.75-19.81-11.26-41-13.22-62.65-4.7a222.14,222.14,0,0,0-20.17,9.44c-49.68,25.59-54.35,20.37-106.5-.93-24.14-9.85-49-21-66.52,2.55-9.51,12.77-15.49,18.43-27.45,18.17-30.89-.69-33.72-49.14-59.7-24.78-4.11,3.86-9.23,7-19.58,3.25-5.83-2.12-10.62-5.47-18-6.18-26.9-2.6-34.89,26.85-57.09,27-21.55.14-22.46-24-39.59-25-9.64-.59-17.8,8.23-29.26,8.26C95.77,325.12,86.55,316.8,95.8,296.3Z"/><path class="cls-2" d="M785.86,296.3c.46,24.3-10.79,33.34-25.92,33.34-.48,0-1,0-1.45,0a36.84,36.84,0,0,1-15.32-4.29c-4.86-2.46-8.07-5.84-11.3-8.4-3.56-2.81-6.4-3.83-8.83-3.83-6.32,0-9.89,6.88-16.29,6.88h-.29c-8.61-.28-12.54-8-22.92-8a23.36,23.36,0,0,0-4,.36c-13.95,2.38-13.72,18.88-30,18.88-7.4,0-18.21-3.41-35.33-13.13-11.56-6.57-23.6-10-35.92-10a72.72,72.72,0,0,0-26.73,5.27,222.14,222.14,0,0,0-20.17,9.44c-23.23,12-36.62,17.2-49.62,17.2-14.81,0-29.11-6.79-56.88-18.13-13.52-5.52-27.27-11.44-39.83-11.44-9.86,0-19,3.65-26.69,14-9.29,12.49-15.21,18.18-26.65,18.18h-.8C306.25,342,299.48,311,284.49,311c-3.76,0-8,2-13.25,6.85-2.81,2.63-6.08,4.94-11.18,4.94a24.78,24.78,0,0,1-8.4-1.69c-5.83-2.12-10.62-5.47-18-6.18-1.14-.11-2.24-.17-3.3-.17-24.31,0-32.53,27-53.79,27.16h-.18c-21.38,0-22.33-24-39.41-25-.31,0-.63,0-.94,0-9.23,0-17.24,8.25-28.32,8.28h-.06c-11.93,0-21.1-8.33-11.87-28.79H785.86m9.8-10H89.34l-2.65,5.89c-7.39,16.36-4.59,26.54-.94,32.19,4.4,6.81,12.39,10.71,21.92,10.71h.06c8,0,14.42-3,19.61-5.33,3.47-1.58,6.47-2.95,8.71-2.95h.33c3.26.2,5.42,2.46,9.92,8,5.88,7.2,13.93,17.06,30.1,17.06h.23c14-.09,23.28-8.22,31.47-15.39,8.34-7.29,13.87-11.77,22.26-11.77.77,0,1.55,0,2.35.12,3.43.33,6.15,1.57,9.6,3.13,1.85.84,3.77,1.71,5.93,2.5a34.46,34.46,0,0,0,11.82,2.29c8.85,0,14.52-4.36,18-7.65s5.67-4.14,6.41-4.14c1.91,0,6.7,5.76,9.56,9.21,7.71,9.28,18.29,22,36.67,22.41l1,0c16.81,0,25.31-9.63,34.68-22.21,5.12-6.89,10.88-10,18.66-10,9.93,0,22.12,5,33.92,9.83l2.13.87,9.79,4c22.4,9.25,35.93,14.84,50.87,14.84,15.69,0,31.15-6.44,54.2-18.31a212.15,212.15,0,0,1,19.25-9,63,63,0,0,1,23.07-4.58c10.43,0,20.86,2.91,31,8.66,17.34,9.85,30.14,14.44,40.26,14.44,13.44,0,20-7.92,24.4-13.17,3.24-3.9,4.71-5.42,7.26-5.85a14.14,14.14,0,0,1,2.32-.22c2.66,0,4.36.94,7.65,2.88,3.71,2.2,8.34,4.93,14.94,5.14h.62c6.34,0,10.89-3.15,13.9-5.24a26.52,26.52,0,0,1,2.46-1.58,10.53,10.53,0,0,1,2.56,1.62c.7.55,1.47,1.21,2.28,1.91a51.84,51.84,0,0,0,10.71,7.56,46.35,46.35,0,0,0,19.46,5.36c.61,0,1.22,0,1.82,0,10.23,0,18.93-3.35,25.14-9.69,7.44-7.58,11.06-19,10.77-33.84l-.19-9.81Z"/><rect class="cls-17" x="125.96" y="304.5" width="6.94" height="4.69" transform="translate(-182.58 190.41) rotate(-46.67)"/><rect class="cls-17" x="160.94" y="311.21" width="6.94" height="4.69" transform="translate(-189.18 331.55) rotate(-65.24)"/><rect class="cls-17" x="195.78" y="308.75" width="6.94" height="4.69" transform="translate(-164.18 377.47) rotate(-67.71)"/><rect class="cls-17" x="255.47" y="305.82" width="6.94" height="4.69" transform="translate(-129.33 414.31) rotate(-65.25)"/><rect class="cls-17" x="320.14" y="310.47" width="6.94" height="4.69" transform="translate(-9.28 615.75) rotate(-86.33)"/><rect class="cls-17" x="327.82" y="327.8" width="6.94" height="4.69" transform="translate(-101.02 508.65) rotate(-67.34)"/><rect class="cls-17" x="347.81" y="307.37" width="4.69" height="6.94" transform="translate(-81.32 492.66) rotate(-64.45)"/><rect class="cls-17" x="445.56" y="312.43" width="6.94" height="4.69" transform="translate(106.15 742.74) rotate(-86.33)"/><rect class="cls-17" x="463.93" y="310.82" width="4.69" height="6.94" transform="translate(-91.27 241.23) rotate(-26.52)"/><rect class="cls-17" x="491.51" y="324.29" width="6.94" height="4.69" transform="translate(-18.34 623.61) rotate(-63.47)"/><rect class="cls-17" x="509.41" y="307.53" width="6.94" height="4.69" transform="translate(-3.71 6.22) rotate(-0.69)"/><rect class="cls-17" x="639.82" y="309.57" width="6.94" height="4.69" transform="translate(290.84 933.92) rotate(-86.33)"/><rect class="cls-17" x="743.98" y="310.72" width="6.94" height="4.69" transform="translate(387.19 1038.94) rotate(-86.33)"/><rect class="cls-17" x="759" y="308.29" width="4.69" height="6.94" transform="translate(-54.9 414.63) rotate(-29.45)"/><path class="cls-18" d="M785.63,285.3C747.75,129.68,606.8,13.25,440,13.25h0c-166.85,0-307.8,116.43-345.68,272.05Z"/><path class="cls-2" d="M440,13.25c166.85,0,307.8,116.43,345.68,272.05H94.27c37.88-155.62,178.83-272,345.68-272m0-10A363.61,363.61,0,0,0,212.51,83.1a369.28,369.28,0,0,0-80.11,88.62A363.39,363.39,0,0,0,84.56,282.93l-3,12.37h716.8l-3-12.37A363.39,363.39,0,0,0,747.5,171.72,369.28,369.28,0,0,0,667.39,83.1,363.61,363.61,0,0,0,440,3.25Z"/><path class="cls-19" d="M720.81,151.35C655.59,67.46,553.8,13.25,440,13.25,306,13.25,188.73,88.3,128.1,198.42a6.34,6.34,0,0,0,4.76.2c2.74-.86,4.3-3.6,6.37-4,1.28-.24,2.63.19,4.17,2a8.2,8.2,0,0,1,2,5.65c-.33,2.83-2.41,5.51-3.07,9.14-1.11,6.1,4.18,8.71,9.49,8.3,8.26-.65,9.62-7.76,9.6-14.65,0-4-.84-11.38,1.52-14.72,3.15-4.46,8.67-1.15,8.39,1.86-.13,1.52-1.42,3-1.68,4.81-.32,2.26.9,4.83,4.42,5,8.93-.72,4.26-15.49,10.87-23.55,5.13-6.26,20-9.66,23.49-.68,1.25,3.15,2,6.62,3.52,9.74,1.09,2.16,7.53,4.56,11.42,1.2,3,4.91,8.87,7.2,16.05,4.3,15.33-6.19-.14-25.31,15-26.31,7.26-.48,11.69,9,18.92,7.13,3.86-1,2.65-4.72,5.75-6.3,4.31-2.18,11.16,6.34,17.19,11.21,7,5.68,12.24,1.63,9.18-4-3.57-6.57,1.11-11.78,4.73-7.92,6.19,6.61,11.79,6.09,10.81-3.36-.61-6.7,2.56-5.81,4.05-8.65a10.32,10.32,0,0,1,6.4-5.53c1.85-.56,4.06-.11,6.22-.06,7.22.17,6.8-9.74,11.93-11.57,7.87-2.79,13.37,9.21,23.7,4.86,3.36-1.42,7.61-6,11.68-2.65,2.08,1.7,2.55,5.17,3,8.62.85,6.25,2.26,10.81,9.61,11.33,12.76.9,7.71-12.4,19.76-15.6,10.41-2.75,26.8,1.6,24.89,15.24-.53,3.79-3.6,6.06-6.12,10.23-6.73,11.16,7.3,15.84,11.73,6.87,4.83-9.82,15-14.84,25.34-10.91,8.8,3.34,16.79,12.33,25.19,12a12.33,12.33,0,0,0,11.34-7.63,29.66,29.66,0,0,1,4-7c6.51-7.77,19.11-.23,14.68,7.29s2,11.63,8.74,6.77c5.45-3.92,8.54,5.75,10.51,9.82,3.71,7.67,8.54,15.52,17.18,9.13,4.67-3.46,6.93-2.9,9-1.18,2.88,2.39,4.89,5.86,8.75,6.6,5.54,1.05,9.31-1.53,10.76-5.58,2.77-7.68-1.7-11.16-5.53-14.87-12.85-12.47,5.53-20.93,10.06-10.56a35.26,35.26,0,0,1,1.09,4c1,3.14,3.72,3.41,5.87.93,2.34-2.71,6.07-2.3,8.56-.12,4,3.46.94,9.4-.72,13.21-3.39,7.77-1.63,12.75,5.32,16.34a35.6,35.6,0,0,1,5,3.09c4.66,3.58,4.17,7.21,10.88,7a11.07,11.07,0,0,0,10-6.56c2.1-4.49.77-7.76-1.53-11.09-3.65-5.27-6.34-8.23-6.5-13.09a16.87,16.87,0,0,1,2.92-10c2-2.79,5.67-4.81,8.05-3,1.7,1.28,1.89,3.69,2.62,5.77,1.76,5,7.94,5.35,10.53.36,1.18-2.25,1.58-5.31,4.54-5.15,1,.05,2.06,1,3.23,3.31,2.12,4.2,2.89,11.36,10.27,11.21s6.88-6.49,10-6.77a4.6,4.6,0,0,1,2.67.82c1.64,1,3.17,2.39,4.75,3.59,2.87,2.17,10.28,5.2,9.95-1.25-.16-3.07-9.95-12.57-1.7-17.13,2.79-1.54,6-.18,9,1.28,3.13,1.56,5.9,3.24,7.38,1.66,2.23-2.39-.14-4.42-2-5.85C712.55,158.62,713.27,151.92,720.81,151.35Z"/><rect class="cls-20" x="248.56" y="90.99" width="20.77" height="20.77" rx="4"/><rect class="cls-20" x="329.04" y="80.6" width="20.77" height="20.77" rx="4"/><rect class="cls-20" x="460.64" y="75.84" width="20.77" height="20.77" rx="4"/><rect class="cls-20" x="531.34" y="45.53" width="20.77" height="20.77" rx="4"/><rect class="cls-20" x="602.04" y="106.14" width="20.77" height="20.77" rx="3"/><rect class="cls-20" x="389.95" y="30.38" width="20.77" height="20.77" rx="4"/></svg>